<svg width="27" height="30" viewBox="0 0 27 30" fill="none" xmlns="http://www.w3.org/2000/svg">
<path d="M19.75 9.86048H22.875C23.7038 9.86048 24.4987 10.1285 25.0847 10.6055C25.6708 11.0825 26 11.7295 26 12.4041V25.6308C26 26.3054 25.6708 26.9524 25.0847 27.4294C24.4987 27.9064 23.7038 28.1744 22.875 28.1744H4.125C3.2962 28.1744 2.50134 27.9064 1.91529 27.4294C1.32924 26.9524 1 26.3054 1 25.6308V12.4041C1 11.7295 1.32924 11.0825 1.91529 10.6055C2.50134 10.1285 3.2962 9.86048 4.125 9.86048H7.25M7.25 15.9651L13.5 21.0523L19.75 15.9651M13.5 1.72095V20.0349" stroke="#BDBDBD" stroke-width="2" stroke-linecap="round" stroke-linejoin="round"/>
</svg>
