<svg width="21" height="15" viewBox="0 0 21 15" fill="none" xmlns="http://www.w3.org/2000/svg">
<path d="M10.5 4.5C11.2595 4.5 11.9879 4.81607 12.5249 5.37868C13.0619 5.94129 13.3636 6.70435 13.3636 7.5C13.3636 8.29565 13.0619 9.05871 12.5249 9.62132C11.9879 10.1839 11.2595 10.5 10.5 10.5C9.74052 10.5 9.01214 10.1839 8.4751 9.62132C7.93807 9.05871 7.63636 8.29565 7.63636 7.5C7.63636 6.70435 7.93807 5.94129 8.4751 5.37868C9.01214 4.81607 9.74052 4.5 10.5 4.5ZM10.5 0C15.2727 0 19.3486 3.11 21 7.5C19.3486 11.89 15.2727 15 10.5 15C5.72727 15 1.65136 11.89 0 7.5C1.65136 3.11 5.72727 0 10.5 0ZM2.08091 7.5C3.65591 10.86 6.91091 13 10.5 13C14.0891 13 17.3441 10.86 18.9191 7.5C17.3441 4.14 14.0891 2 10.5 2C6.91091 2 3.65591 4.14 2.08091 7.5Z" fill="white"/>
</svg>
