<svg width="19" height="19" viewBox="0 0 19 19" fill="none" xmlns="http://www.w3.org/2000/svg">
<path d="M18.5297 8.03598L18.4338 7.62926H9.59373V11.3707H14.8756C14.3272 13.9748 11.7825 15.3455 9.704 15.3455C8.19163 15.3455 6.59741 14.7093 5.54223 13.6868C4.98552 13.1387 4.54238 12.4862 4.23818 11.7666C3.93399 11.047 3.77471 10.2744 3.76946 9.49321C3.76946 7.91723 4.47772 6.34083 5.5083 5.30388C6.53888 4.26694 8.09536 3.68676 9.64292 3.68676C11.4153 3.68676 12.6855 4.62786 13.1605 5.05705L15.8192 2.41232C15.0393 1.72696 12.8967 0 9.55725 0C6.9808 0 4.51038 0.986897 2.70453 2.78681C0.922433 4.55915 0 7.12203 0 9.5C0 11.878 0.872813 14.3128 2.59978 16.0991C4.44507 18.0042 7.05842 19 9.74938 19C12.1977 19 14.5185 18.0407 16.1725 16.3001C17.7985 14.5867 18.6395 12.216 18.6395 9.73071C18.6395 8.68444 18.5343 8.06312 18.5297 8.03598Z" fill="white"/>
</svg>
