<svg width="75" height="74" viewBox="0 0 75 74" fill="none" xmlns="http://www.w3.org/2000/svg">
<ellipse cx="37.1345" cy="37.202" rx="37.1345" ry="36.7982" fill="#3961C8"/>
<ellipse cx="37.1377" cy="37.5383" rx="30.4073" ry="30.1382" fill="white"/>
<path d="M64.3006 37.5379C64.3006 52.1645 52.143 64.0279 37.1379 64.0279C22.1328 64.0279 9.9752 52.1645 9.9752 37.5379C9.9752 22.9114 22.1328 11.0479 37.1379 11.0479C52.143 11.0479 64.3006 22.9114 64.3006 37.5379Z" stroke="#CCCCCC" stroke-width="0.3"/>
<path d="M23.0712 40.7676H26.05V36.6469L30.3859 30.3417V29.6797H27.4733L24.5606 34.2803L21.6645 29.6797H18.7354V30.3417L23.0712 36.6469V40.7676Z" fill="#4B4B4B"/>
<path d="M39.0429 40.7676V32.3275H43.3622V29.6797H31.7613V32.3275H36.0641V40.7676H39.0429Z" fill="#4B4B4B"/>
<path d="M52.0203 40.7676V32.3275H56.3397V29.6797H44.7388V32.3275H49.0415V40.7676H52.0203Z" fill="#4B4B4B"/>
<path fill-rule="evenodd" clip-rule="evenodd" d="M38.8469 2.14747C38.7714 2.22053 38.5961 2.61818 38.5154 2.89974C38.4864 3.0011 38.4382 3.08115 38.4085 3.0777C38.3788 3.07425 38.3441 3.1609 38.3315 3.27031C38.3188 3.37973 38.2827 3.48061 38.2511 3.49458C38.2058 3.51457 38.0898 3.82408 38.0252 4.09732C38.0202 4.11819 37.9935 4.15245 37.9656 4.17335C37.9378 4.19431 37.9066 4.28511 37.8962 4.37522C37.8858 4.46527 37.8499 4.53579 37.8165 4.53192C37.7831 4.52804 37.7498 4.57724 37.7424 4.64122C37.7294 4.75364 37.465 5.4095 37.3536 5.60574C37.3075 5.68696 37.3338 5.70594 37.5223 5.72782C37.6452 5.74208 37.7823 5.72508 37.8271 5.68998C37.9035 5.63014 38.0672 5.24269 38.193 4.82402C38.2576 4.60876 38.2714 4.60621 39.11 4.65257C39.593 4.67933 39.7043 4.70063 39.6969 4.76496C39.6918 4.8086 39.7404 4.98704 39.8049 5.16145C39.8693 5.33586 39.9175 5.51771 39.912 5.56556C39.9065 5.61342 39.9293 5.65572 39.9626 5.6596C39.996 5.66347 40.0173 5.71866 40.01 5.78224C40.0027 5.84582 40.024 5.90101 40.0574 5.90488C40.0907 5.90876 40.1211 5.88592 40.1247 5.85413C40.1284 5.82234 40.2134 5.80584 40.3136 5.81747C40.5033 5.8395 40.5377 5.79428 40.4675 5.61487C40.3666 5.35709 40.2802 5.0413 40.2892 4.96333C40.2946 4.91675 40.2717 4.87543 40.2383 4.87155C40.2049 4.86768 40.1834 4.81405 40.1905 4.75232C40.1977 4.69059 40.178 4.62089 40.1469 4.59737C40.1158 4.57384 40.0977 4.49114 40.1066 4.41351C40.1156 4.33589 40.1002 4.26979 40.0724 4.26656C40.0446 4.26333 39.9875 4.09856 39.9456 3.9004C39.9035 3.70223 39.8487 3.53772 39.8237 3.53481C39.7986 3.5319 39.7856 3.4645 39.7948 3.38503C39.804 3.30555 39.7842 3.23736 39.7508 3.23348C39.7174 3.22961 39.6976 3.16141 39.7068 3.08194C39.716 3.00247 39.6962 2.93427 39.6628 2.9304C39.6294 2.92652 39.6065 2.8852 39.6119 2.83862C39.624 2.73371 39.4821 2.32029 39.3965 2.21125C39.3617 2.16698 39.2391 2.11977 39.1239 2.1064C39.0087 2.09303 38.8841 2.11155 38.8469 2.14747ZM43.9693 2.93243C43.9263 3.01208 43.8747 3.21866 43.8547 3.39142C43.8348 3.56418 43.7944 3.70277 43.765 3.69935C43.72 3.69414 43.471 4.81808 43.4912 4.93465C43.4949 4.95581 43.4694 4.98601 43.4346 5.00165C43.3998 5.01735 43.3161 5.33342 43.2485 5.70414L43.1257 6.37813L43.3 6.39749C43.396 6.40809 43.508 6.40136 43.5492 6.38247C43.5932 6.36221 43.673 6.08265 43.7432 5.70298C43.8089 5.34821 43.8864 5.06064 43.9155 5.06402C43.9446 5.0674 43.9759 5.00513 43.9851 4.92566C44.0004 4.79296 44.0241 4.78375 44.275 4.81287C44.4252 4.83031 44.5456 4.86689 44.5425 4.89411C44.5393 4.92134 44.8141 4.9944 45.153 5.05646C45.492 5.11847 45.7806 5.18283 45.7945 5.19944C45.8083 5.2161 45.7674 5.38285 45.7035 5.57008C45.6396 5.75731 45.5458 6.12791 45.495 6.39362L45.4025 6.87667L45.6488 6.90525L45.895 6.93383L45.958 6.63362C46.0494 6.19707 46.2735 5.30441 46.3902 4.91192C46.5269 4.45187 46.7278 3.49712 46.7 3.43959C46.6876 3.41403 46.5869 3.38254 46.4761 3.36969C46.2992 3.34916 46.2677 3.3677 46.216 3.52254C46.1836 3.61947 46.1425 3.82557 46.1246 3.98053C46.1067 4.13549 46.0648 4.25913 46.0314 4.25525C45.998 4.25138 45.9716 4.26811 45.9728 4.29239C45.9741 4.31666 45.959 4.44671 45.9394 4.58138C45.9075 4.80067 45.8884 4.8244 45.7557 4.80899C45.6741 4.79953 45.5951 4.76687 45.58 4.73636C45.5649 4.7059 45.2744 4.62967 44.9345 4.56697C44.1393 4.4202 44.0952 4.39083 44.1554 4.0479C44.1813 3.90025 44.223 3.76862 44.2481 3.75542C44.2733 3.74223 44.3262 3.53751 44.3659 3.3005L44.438 2.86957L44.2427 2.82857C44.0789 2.79415 44.0349 2.81084 43.9693 2.93243ZM39.2137 3.08979C39.2049 3.16573 39.225 3.23104 39.2584 3.23491C39.2918 3.23879 39.3116 3.30698 39.3024 3.38646C39.2933 3.46593 39.3099 3.53376 39.3394 3.53718C39.3689 3.5406 39.4009 3.60365 39.4105 3.67722C39.4201 3.75079 39.4568 3.91982 39.4922 4.05279L39.5563 4.29453L39.3903 4.31227C39.2989 4.322 39.05 4.31291 38.8372 4.29202L38.4502 4.25401L38.5179 4.04222C38.5552 3.92577 38.6358 3.73082 38.697 3.60906C38.7582 3.4873 38.8184 3.30322 38.8309 3.19994C38.8433 3.09665 38.8808 3.01537 38.9142 3.01924C38.9476 3.02312 38.9856 2.94189 38.9986 2.83868L39.0224 2.65107L39.126 2.80138C39.183 2.88403 39.2225 3.01384 39.2137 3.08979ZM33.215 2.29115C33.2105 2.32953 33.1045 2.34499 32.9605 2.32828C32.8248 2.31252 32.6505 2.32323 32.5732 2.3521C32.496 2.38091 32.349 2.41129 32.2465 2.41955C32.0755 2.43333 32.0587 2.4534 32.042 2.66386C32.032 2.78998 32.0511 3.06767 32.0844 3.28093C32.1177 3.4942 32.146 3.7808 32.1471 3.91788C32.1482 4.05495 32.1738 4.16991 32.2038 4.1734C32.2338 4.17688 32.2499 4.26443 32.2394 4.36789C32.2289 4.47134 32.2477 4.66465 32.2811 4.79739C32.3145 4.93013 32.3327 5.12179 32.3215 5.22328C32.3102 5.32478 32.3265 5.42706 32.3577 5.45059C32.3888 5.47412 32.4056 5.56774 32.3951 5.6586C32.3619 5.94667 32.4091 6.01301 32.6687 6.04314L32.9088 6.071L32.8981 5.79153C32.8922 5.63786 32.8649 5.50067 32.8373 5.48674C32.8096 5.47276 32.7985 5.36275 32.8124 5.24224C32.8263 5.12173 32.8097 4.90835 32.7754 4.768C32.7012 4.46471 32.7332 4.41056 32.9705 4.4381C33.0687 4.4495 33.1521 4.43281 33.1557 4.40102C33.1649 4.32184 33.5064 4.3678 33.6595 4.4688C33.8464 4.59206 34.1723 5.18739 34.1515 5.36749C34.1461 5.4143 34.169 5.4558 34.2024 5.45967C34.2358 5.46355 34.2584 5.50758 34.2526 5.55752C34.2352 5.70814 34.3837 5.83216 34.6133 5.85881C34.8041 5.88095 34.8321 5.86663 34.8468 5.73947C34.856 5.66 34.8362 5.5918 34.8028 5.58793C34.7694 5.58405 34.7466 5.54187 34.7521 5.49418C34.7576 5.4465 34.7348 5.40432 34.7014 5.40044C34.668 5.39657 34.6442 5.36311 34.6485 5.32612C34.6609 5.21826 34.5067 4.79211 34.453 4.78587C34.426 4.78274 34.4086 4.74001 34.4143 4.69088C34.4276 4.57522 34.187 4.28641 34.0655 4.27231C33.9314 4.25674 33.9716 4.06835 34.1265 3.98652C34.1986 3.94844 34.2629 3.87103 34.2694 3.81444C34.276 3.75791 34.3126 3.71525 34.3508 3.71969C34.439 3.72992 34.462 2.95179 34.3746 2.91248C34.342 2.8978 34.3204 2.84071 34.3268 2.78569C34.3335 2.72766 34.24 2.62039 34.1041 2.53023C33.8332 2.3506 33.2269 2.18758 33.215 2.29115ZM33.3561 2.66706C33.3524 2.69885 33.4265 2.7338 33.5206 2.74473C33.7598 2.77249 33.9284 3.02822 33.9313 3.36794C33.9335 3.61994 33.9146 3.65822 33.7004 3.83479C33.5421 3.96532 33.4148 4.02107 33.3044 4.00826C33.215 3.99788 33.1388 4.01539 33.1351 4.04718C33.1314 4.07897 33.0191 4.0923 32.8856 4.0768C32.6493 4.04937 32.6433 4.04324 32.6657 3.84973C32.6783 3.74031 32.6632 3.6316 32.6321 3.60808C32.601 3.58455 32.5824 3.49518 32.5908 3.40946C32.5992 3.32375 32.5818 3.1559 32.5521 3.03648C32.5029 2.83894 32.5101 2.81207 32.6325 2.7383C32.7065 2.69376 32.8707 2.6693 32.9975 2.68401C33.1243 2.69873 33.231 2.68476 33.2347 2.65297C33.2384 2.62118 33.2687 2.59834 33.3021 2.60221C33.3355 2.60609 33.3598 2.63527 33.3561 2.66706ZM27.4292 3.37677C27.425 3.41301 27.3522 3.43461 27.2674 3.42477C27.1825 3.41492 27.0043 3.44502 26.8712 3.4916C26.5781 3.59413 26.0633 4.0158 26.0458 4.16758C26.0388 4.22792 26.0028 4.27376 25.9658 4.26947C25.8664 4.25793 25.763 5.60491 25.86 5.64856C25.8998 5.66647 25.9266 5.73097 25.9196 5.79189C25.9125 5.85286 25.9341 5.90586 25.9675 5.90973C26.0009 5.91361 26.0237 5.9555 26.0183 6.00284C25.9987 6.17231 26.5517 6.85614 26.7246 6.87621C26.7873 6.88349 26.8357 6.91546 26.832 6.94725C26.8283 6.97904 26.9155 7.01551 27.0257 7.0283C27.1359 7.04109 27.2513 7.0819 27.2822 7.11899C27.377 7.23272 28.417 7.07391 28.4321 6.94341C28.4349 6.91913 28.4677 6.90278 28.5049 6.9071C28.5956 6.91763 29.0307 6.55529 29.0417 6.4601C29.0465 6.4186 29.0713 6.3871 29.0967 6.39005C29.1222 6.39301 29.1886 6.27442 29.2442 6.12648C29.3532 5.83654 29.4056 5.06141 29.3134 5.10214C29.2825 5.11578 29.265 5.06004 29.2745 4.97825C29.2938 4.81046 29.2383 4.66525 29.0152 4.30121C28.8197 3.98208 28.7456 3.8892 28.6808 3.88168C28.6524 3.87838 28.5958 3.8191 28.555 3.74993C28.5142 3.68077 28.4323 3.61854 28.3728 3.61164C28.3135 3.60475 28.2673 3.57743 28.2704 3.55096C28.2735 3.52443 28.2422 3.49608 28.2008 3.48782C28.1595 3.47963 27.9707 3.43645 27.7812 3.39191C27.5388 3.3349 27.4345 3.33042 27.4292 3.37677ZM28.0276 3.97726C28.647 4.37211 28.9379 5.10484 28.7797 5.87131C28.7016 6.24994 28.6724 6.30349 28.4552 6.46706C28.3239 6.56594 28.1183 6.67327 27.9983 6.70562C27.7492 6.77266 27.2263 6.72954 27.2363 6.64273C27.24 6.61094 27.1884 6.57859 27.1216 6.57084C27.0548 6.56309 27.0032 6.53074 27.0069 6.49895C27.0105 6.46716 26.985 6.43784 26.9501 6.43379C26.8677 6.42422 26.6193 6.12613 26.6283 6.04764C26.6322 6.0144 26.608 5.98407 26.5746 5.98019C26.5412 5.97632 26.5184 5.93413 26.5239 5.88645C26.5294 5.83876 26.5133 5.79735 26.4881 5.79443C26.3924 5.78333 26.3248 5.31796 26.3524 4.86048C26.3754 4.47803 26.4055 4.35529 26.5062 4.23401C26.6837 4.02008 26.9218 3.85326 27.0316 3.86599C27.0831 3.87197 27.1283 3.85086 27.132 3.81907C27.144 3.71492 27.7971 3.83025 28.0276 3.97726ZM22.3004 5.16632C22.0674 5.27857 21.8471 5.38814 21.8108 5.40969C21.7745 5.43131 21.6653 5.47715 21.5683 5.51158C21.4713 5.54601 21.3894 5.59584 21.3863 5.62225C21.3833 5.64867 21.3449 5.66613 21.3012 5.66105C21.2573 5.65596 21.1612 5.69395 21.0876 5.7455C21.0139 5.79698 20.8831 5.86498 20.797 5.89663C20.7109 5.92823 20.5466 6.00651 20.4319 6.07058C20.2271 6.18498 20.2249 6.19023 20.303 6.3619L20.3826 6.53673L20.6453 6.41873C20.7898 6.35384 20.9237 6.28469 20.9429 6.26495C20.9621 6.24527 21.0708 6.20265 21.1846 6.17034C21.2983 6.13797 21.3938 6.08995 21.3968 6.06366C21.4057 5.9873 21.535 6.16831 21.6381 6.40128C21.6903 6.51915 21.7749 6.6723 21.8261 6.74168C21.8772 6.81099 21.9152 6.90186 21.9104 6.94359C21.9056 6.98526 21.929 7.02253 21.9624 7.02641C21.9958 7.03028 22.0186 7.07247 22.0131 7.12015C22.0075 7.16783 22.0304 7.21002 22.0637 7.21389C22.0971 7.21777 22.1199 7.25995 22.1144 7.30764C22.1089 7.35532 22.1317 7.39751 22.1651 7.40138C22.1985 7.40526 22.2213 7.44744 22.2158 7.49513C22.2103 7.54281 22.2262 7.58472 22.2512 7.58826C22.2762 7.59181 22.3624 7.73361 22.4429 7.90338C22.5233 8.07314 22.6107 8.21456 22.6373 8.21764C22.6637 8.22071 22.6801 8.26952 22.6735 8.32605C22.667 8.38263 22.712 8.47272 22.7734 8.52631C22.8349 8.57989 22.8806 8.66374 22.875 8.71264C22.8693 8.76154 22.9156 8.84042 22.9778 8.88788C23.04 8.93533 23.0937 8.94965 23.0971 8.91977C23.1006 8.88983 23.1573 8.85565 23.2233 8.8438C23.3858 8.81457 23.4461 8.68474 23.3503 8.56983C23.307 8.51788 23.2733 8.46009 23.2755 8.44142C23.2811 8.39275 22.9181 7.71504 22.8073 7.56735C22.7561 7.49896 22.7173 7.41463 22.7213 7.37995C22.7253 7.34527 22.6783 7.27309 22.6168 7.21951C22.5553 7.16592 22.5104 7.07583 22.5169 7.01925C22.5234 6.96272 22.5015 6.91325 22.4681 6.90938C22.4347 6.9055 22.4113 6.86823 22.4161 6.82656C22.421 6.78483 22.3828 6.69476 22.3312 6.62633C22.148 6.38308 21.9208 5.88941 21.9594 5.8185C21.981 5.77883 22.0525 5.73676 22.1184 5.72491C22.1844 5.71306 22.2407 5.68223 22.2437 5.65645C22.2467 5.63067 22.3348 5.58672 22.4396 5.55887C22.5443 5.53102 22.6326 5.48533 22.6359 5.45742C22.6391 5.42944 22.6798 5.41103 22.7263 5.41643C22.8261 5.42801 22.9328 5.25993 22.8621 5.20257C22.8352 5.18077 22.7931 5.11772 22.7686 5.06251C22.7297 4.97523 22.6684 4.98885 22.3004 5.16632Z" fill="white"/>
<path d="M10.0786 14.5471C10.1168 14.5078 10.1815 14.4247 10.2224 14.3622C10.2957 14.2504 10.5358 14.2641 10.4932 14.3777C10.4818 14.4077 10.5503 14.4589 10.6454 14.4914C10.7404 14.5239 10.8089 14.5751 10.7976 14.6052C10.7862 14.6353 10.8221 14.6759 10.8773 14.6955C10.9326 14.7152 11.1362 14.8541 11.3299 15.0044C11.5236 15.1547 11.7274 15.2932 11.7828 15.3123C11.8383 15.3314 11.8743 15.3716 11.863 15.4017C11.8517 15.4318 11.9056 15.4781 11.983 15.5045C12.0603 15.531 12.1303 15.5827 12.1386 15.6195C12.1468 15.6562 12.2039 15.7035 12.2654 15.7246C12.3269 15.7456 12.369 15.7844 12.3591 15.8109C12.3491 15.8373 12.4067 15.9156 12.487 15.985C12.5673 16.0542 12.6638 16.167 12.7015 16.2356C12.8214 16.4538 12.8594 16.8817 12.7787 17.1066C12.6704 17.4083 12.4857 17.7139 12.4241 17.6928C12.3959 17.6832 12.3543 17.7245 12.3317 17.7847C12.309 17.8449 12.2708 17.8874 12.2466 17.8791C12.2225 17.8708 12.157 17.9088 12.1011 17.9634C11.9247 18.1361 11.6128 18.1843 11.2522 18.0945C10.8637 17.9978 10.2759 17.7259 10.2223 17.6181C10.2023 17.5778 10.1263 17.5245 10.0534 17.4996C9.98057 17.4747 9.93022 17.4297 9.94153 17.3996C9.95285 17.3695 9.90993 17.327 9.84612 17.3052C9.78236 17.2834 9.6933 17.2285 9.64823 17.1833C9.51244 17.0468 9.06424 16.7285 8.95644 16.692C8.90091 16.6732 8.86481 16.6332 8.87612 16.6031C8.88744 16.573 8.81895 16.5218 8.72392 16.4893C8.58956 16.4433 8.56028 16.4059 8.59229 16.3208C8.61493 16.2606 8.65936 16.2202 8.69104 16.2311C8.72271 16.2419 8.75251 16.2313 8.75727 16.2074C8.78437 16.0707 8.84844 16.0379 8.9922 16.0871C9.08089 16.1174 9.17018 16.1717 9.19057 16.2077C9.24198 16.2985 9.73166 16.6487 9.87634 16.6981C9.94165 16.7205 9.98789 16.7579 9.97909 16.7813C9.97028 16.8047 10.1088 16.9226 10.2868 17.0432C10.4649 17.1639 10.6466 17.3017 10.6907 17.3494C10.7349 17.3972 10.862 17.4674 10.9733 17.5054C11.0846 17.5435 11.1661 17.6001 11.1544 17.6313C11.1397 17.6703 11.1743 17.6821 11.2658 17.6693C11.3388 17.6592 11.4456 17.6669 11.5031 17.6865C11.6228 17.7274 11.933 17.6193 12.1064 17.4763C12.1712 17.4229 12.2716 17.2533 12.3294 17.0995C12.4224 16.8522 12.4196 16.792 12.305 16.5809C12.1106 16.2229 12.0533 16.146 11.9558 16.1126C11.907 16.0959 11.8763 16.0577 11.8876 16.0276C11.8989 15.9975 11.8304 15.9463 11.7354 15.9138C11.6404 15.8813 11.5719 15.8301 11.5832 15.8C11.5945 15.7699 11.5557 15.7289 11.497 15.7088C11.4383 15.6887 11.2348 15.5497 11.0448 15.3998C10.8547 15.2499 10.6538 15.1117 10.5982 15.0927C10.5426 15.0737 10.5064 15.0336 10.5178 15.0035C10.5291 14.9734 10.4948 14.9339 10.4416 14.9157C10.3885 14.8975 10.2694 14.8232 10.1771 14.7505C10.0557 14.6549 10.0284 14.5986 10.0786 14.5471Z" fill="white"/>
<path d="M4.05044 25.1387C3.90036 25.0873 3.84983 24.9066 3.92765 24.6997C3.9874 24.5409 4.02261 24.5117 4.11631 24.5438C4.17966 24.5654 4.22497 24.6017 4.21699 24.6245C4.20906 24.6473 4.33016 24.7919 4.48608 24.9459C4.64206 25.1 4.76244 25.2453 4.75356 25.2689C4.74469 25.2925 4.78926 25.3296 4.85261 25.3512C4.91596 25.3729 4.95854 25.4152 4.94722 25.4453C4.9359 25.4754 4.97848 25.5177 5.04183 25.5394C5.10518 25.5611 5.14775 25.6034 5.13644 25.6335C5.12512 25.6636 5.15474 25.7015 5.20225 25.7177C5.24976 25.734 5.28156 25.7661 5.27292 25.7891C5.26428 25.812 5.34896 25.9173 5.46119 26.023C5.63278 26.1846 5.78857 26.2574 6.44259 26.4812L7.22001 26.7473L7.16342 26.9498L7.1068 27.1523L6.29978 26.9148C5.82913 26.7763 5.47566 26.6981 5.45167 26.7271C5.42904 26.7544 5.3609 26.7598 5.3002 26.7391C5.23944 26.7183 5.18053 26.726 5.16922 26.756C5.1579 26.7861 5.10251 26.795 5.04618 26.7757C4.9898 26.7564 4.88783 26.7771 4.81953 26.8217C4.75122 26.8662 4.65138 26.8877 4.5977 26.8693C4.54397 26.8509 4.48446 26.8514 4.46536 26.8704C4.42359 26.912 3.91976 27.0022 3.76262 26.9963C3.70096 26.9939 3.64228 27.0138 3.63228 27.0403C3.6223 27.0669 3.57524 27.0754 3.52773 27.0591C3.48021 27.0429 3.43208 27.0542 3.42076 27.0843C3.40944 27.1144 3.33539 27.1168 3.2562 27.0897C3.12662 27.0454 3.12045 27.0186 3.19452 26.8217C3.25535 26.66 3.30027 26.6109 3.36662 26.6336C3.41597 26.6505 3.44965 26.6342 3.44139 26.5974C3.43312 26.5606 3.47976 26.5488 3.54495 26.5711C3.61015 26.5934 3.6728 26.587 3.68411 26.5569C3.69543 26.5268 3.75652 26.5199 3.81987 26.5416C3.88323 26.5633 3.9424 26.5627 3.95141 26.5403C3.96049 26.5179 4.15715 26.481 4.38853 26.4582C4.61996 26.4355 4.82486 26.4014 4.8439 26.3824C4.86299 26.3634 4.92545 26.364 4.98275 26.3836C5.04011 26.4032 5.11737 26.3856 5.1545 26.3446C5.25239 26.2365 5.25085 26.2283 5.12403 26.1849C5.06068 26.1633 5.0181 26.1209 5.02942 26.0908C5.04074 26.0607 5.01251 26.0233 4.96666 26.0076C4.92082 25.9919 4.78461 25.8759 4.66396 25.7498C4.54332 25.6236 4.40959 25.5084 4.3668 25.4938C4.324 25.4792 4.29825 25.4426 4.30956 25.4125C4.32088 25.3824 4.27831 25.3401 4.21495 25.3184C4.1516 25.2967 4.10903 25.2544 4.12035 25.2243C4.13166 25.1942 4.1002 25.1557 4.05044 25.1387Z" fill="white"/>
<path fill-rule="evenodd" clip-rule="evenodd" d="M7.27343 19.6042C7.26047 19.6387 7.21065 19.6534 7.16268 19.637C6.98155 19.5751 6.29119 19.7963 6.23987 19.9327C6.22742 19.9658 6.19132 19.984 6.15965 19.9732C6.12797 19.9624 6.08432 20.0007 6.06261 20.0584C6.04092 20.116 5.99327 20.1625 5.95667 20.1617C5.85953 20.1595 5.44067 21.0857 5.52561 21.1147C5.56201 21.1272 5.57294 21.1874 5.54992 21.2487C5.44074 21.5389 5.87923 22.4087 6.18798 22.5143C6.2469 22.5344 6.28585 22.5755 6.27453 22.6056C6.26321 22.6357 6.34311 22.6908 6.45213 22.7281C6.56115 22.7654 6.65568 22.8199 6.66232 22.8493C6.67884 22.9229 7.58032 23.1812 7.62794 23.126C7.64909 23.1016 7.72408 23.1013 7.79469 23.1254C7.86524 23.1496 7.99716 23.1391 8.08781 23.1022C8.1784 23.0653 8.27519 23.0428 8.30283 23.0522C8.35766 23.071 8.78911 22.792 8.99996 22.6013C9.09252 22.5177 9.18274 22.3259 9.30146 21.9606C9.43976 21.5351 9.45922 21.4 9.40739 21.2257C9.37246 21.1083 9.35457 20.9837 9.36763 20.949C9.3807 20.9142 9.35976 20.8921 9.32109 20.8999C9.28242 20.9077 9.26459 20.8773 9.28148 20.8324C9.29835 20.7875 9.26621 20.7175 9.21004 20.6767C9.15387 20.636 9.11654 20.5797 9.1271 20.5516C9.13765 20.5235 9.09446 20.4828 9.03111 20.4612C8.96776 20.4395 8.92518 20.3972 8.9365 20.3671C8.94782 20.337 8.90743 20.2954 8.84667 20.2746C8.78597 20.2539 8.73697 20.2067 8.7378 20.1697C8.74 20.0735 7.30532 19.5194 7.27343 19.6042ZM9.0168 21.5468C9.01111 21.2803 8.73848 20.809 8.46228 20.5884C8.21567 20.3914 7.36991 20.039 7.33928 20.1204C7.32627 20.155 7.23789 20.1567 7.14286 20.1242C7.04783 20.0917 6.96308 20.0837 6.95452 20.1065C6.94596 20.1292 6.84893 20.1539 6.73886 20.1614C6.62882 20.1688 6.52566 20.2098 6.50963 20.2524C6.4936 20.295 6.45774 20.3221 6.42987 20.3126C6.31284 20.2726 5.89129 20.893 5.97095 20.988C5.9964 21.0183 5.98944 21.117 5.95549 21.2073C5.91959 21.3027 5.92315 21.3655 5.96407 21.3573C6.00274 21.3495 6.02309 21.3732 6.00928 21.4099C5.97716 21.4953 6.2095 21.9042 6.30966 21.9385C6.35147 21.9528 6.37642 21.9891 6.3651 22.0192C6.35379 22.0493 6.40932 22.0961 6.48851 22.1231C6.5677 22.1502 6.62401 22.1949 6.61366 22.2224C6.58336 22.303 7.42757 22.6576 7.57676 22.627C7.64707 22.6125 7.74419 22.6142 7.79256 22.6308C7.98901 22.698 8.59498 22.4848 8.65406 22.3277C8.66899 22.288 8.70713 22.2644 8.73881 22.2752C8.81166 22.3001 9.02116 21.7513 9.0168 21.5468Z" fill="white"/>
<path fill-rule="evenodd" clip-rule="evenodd" d="M14.4046 10.514C14.1348 10.533 13.6377 10.7384 13.5965 10.8479C13.5782 10.8965 13.5373 10.9274 13.5057 10.9165C13.474 10.9057 13.4296 10.9461 13.4069 11.0062C13.3843 11.0664 13.3438 11.1081 13.3169 11.099C13.2555 11.0779 12.9505 11.3857 12.8599 11.5601C12.8109 11.6543 12.8226 11.7188 12.9011 11.7895C12.9612 11.8435 13.0033 11.9066 12.9947 11.9295C12.986 11.9525 13.0286 11.9882 13.0894 12.009C13.1501 12.0298 13.2014 12.0681 13.2035 12.0943C13.207 12.1386 13.5808 12.5517 13.8268 12.7832C13.886 12.8389 13.9277 12.903 13.9195 12.9257C13.9112 12.9484 13.9563 12.9846 14.0197 13.0063C14.083 13.0279 14.1256 13.0703 14.1143 13.1004C14.103 13.1305 14.1326 13.1684 14.1801 13.1846C14.2276 13.2009 14.2572 13.2388 14.2459 13.2689C14.2346 13.2989 14.275 13.3406 14.3357 13.3613C14.3964 13.3821 14.4476 13.421 14.4494 13.448C14.4512 13.4748 14.611 13.659 14.8046 13.8573C14.9981 14.0555 15.1644 14.2482 15.1739 14.2854C15.1964 14.3728 15.4286 14.2719 15.4723 14.1557C15.4901 14.1084 15.5306 14.0786 15.5623 14.0894C15.5939 14.1003 15.6291 14.0845 15.6404 14.0544C15.6517 14.0243 15.6113 13.9827 15.5506 13.962C15.4899 13.9412 15.4386 13.9028 15.4365 13.8766C15.432 13.8201 15.265 13.628 14.8655 13.22C14.5426 12.8902 14.5318 12.7539 14.8172 12.614C14.9048 12.5711 14.9828 12.5194 14.9904 12.4991C15.0487 12.3443 15.7663 12.3282 15.7629 12.4818C15.762 12.5205 15.8256 12.5742 15.9042 12.6011C15.9829 12.628 16.0825 12.687 16.1257 12.7323C16.1689 12.7776 16.3466 12.8833 16.5207 12.9671C16.815 13.1089 16.84 13.1118 16.8789 13.0084C16.9019 12.9472 16.9549 12.898 16.9967 12.8989C17.1579 12.9026 17.0677 12.6902 16.8795 12.6232C16.7761 12.5863 16.6011 12.4853 16.4907 12.3985C16.3803 12.3119 16.2112 12.2135 16.1147 12.1801C16.0183 12.1466 15.9233 12.0869 15.9037 12.0475C15.8808 12.0015 15.7755 11.9747 15.6101 11.9727C15.364 11.9698 15.3524 11.9636 15.3592 11.8384C15.3631 11.7662 15.3892 11.6385 15.4171 11.5547C15.4451 11.4709 15.442 11.3935 15.4104 11.3826C15.3787 11.3718 15.3667 11.326 15.3836 11.2809C15.4006 11.2357 15.3886 11.1899 15.3569 11.1791C15.3252 11.1683 15.3132 11.1225 15.3302 11.0774C15.3473 11.0318 15.3098 10.9778 15.2459 10.9559C15.1825 10.9343 15.1399 10.8919 15.1512 10.8618C15.1626 10.8317 15.12 10.7894 15.0566 10.7677C14.9933 10.7461 14.9507 10.7037 14.962 10.6736C14.991 10.5966 14.6436 10.4971 14.4046 10.514ZM14.7506 11.157C14.7017 11.1403 14.6709 11.102 14.6822 11.0719C14.7125 10.9913 14.5284 10.9485 14.2957 10.9821C14.0453 11.0181 13.9614 11.0548 13.6753 11.2531C13.3132 11.5039 13.319 11.5679 13.7436 12.0122C13.8846 12.1599 14.0629 12.3487 14.1397 12.432C14.2546 12.5565 14.2965 12.5749 14.3769 12.5356C14.4307 12.5093 14.4889 12.4499 14.5064 12.4035C14.5238 12.3571 14.5584 12.3261 14.5831 12.3346C14.6671 12.3633 14.9612 11.9204 14.9874 11.7257C15.0159 11.5134 14.887 11.2036 14.7506 11.157Z" fill="white"/>
<path d="M52.377 6.06548C52.0501 5.93231 51.9943 5.85144 52.0921 5.65247C52.1657 5.50289 52.1716 5.50106 52.3433 5.5768C52.44 5.61946 52.5797 5.69427 52.6538 5.74298C52.7279 5.79174 52.8119 5.82831 52.8404 5.82432C52.8689 5.82032 52.9701 5.87222 53.0653 5.93966C53.1604 6.00709 53.263 6.05879 53.2932 6.05455C53.3235 6.05031 53.4275 6.10298 53.5244 6.17164C53.6213 6.2403 53.6982 6.28139 53.6954 6.26286C53.6927 6.2444 53.7579 6.27372 53.8405 6.32799C53.923 6.38228 54.0203 6.42256 54.0567 6.41747C54.093 6.41238 54.1697 6.45449 54.2272 6.51105C54.2847 6.5676 54.3549 6.61062 54.3833 6.60665C54.4581 6.59616 54.6308 6.72856 54.6423 6.8053C54.6531 6.87698 54.5292 7.05611 54.4623 7.06548C54.4068 7.07325 53.7419 6.74028 53.7078 6.68763C53.6693 6.6284 53.3262 6.68524 53.3358 6.74926C53.3402 6.7786 53.3097 6.84615 53.2679 6.89929C53.2261 6.95249 53.1891 7.03038 53.1857 7.07244C53.1824 7.11456 53.1162 7.23631 53.0387 7.34303C52.9612 7.44975 52.9023 7.56638 52.9077 7.60216C52.9131 7.63794 52.8686 7.71214 52.8088 7.76709C52.7491 7.82204 52.7035 7.88869 52.7075 7.91527C52.7142 7.95979 52.5116 8.3372 52.2738 8.72313C52.2194 8.81152 52.1784 8.91053 52.1828 8.94316C52.1873 8.97578 52.1421 9.04744 52.0823 9.10239C52.0226 9.15734 51.9785 9.23389 51.9843 9.27249C51.9901 9.31109 51.9685 9.36369 51.9363 9.38934C51.8496 9.45853 51.5028 9.35922 51.488 9.26103C51.4736 9.16484 51.5954 8.91829 51.8681 8.49198C51.9226 8.4067 51.9646 8.31905 51.9613 8.29719C51.958 8.27527 52.0121 8.17266 52.0815 8.06907C52.1509 7.96543 52.2037 7.85406 52.1988 7.8215C52.1939 7.78894 52.2389 7.71732 52.2986 7.66237C52.3583 7.60742 52.4022 7.52938 52.3962 7.48888C52.3901 7.44844 52.4055 7.41239 52.4305 7.40882C52.4555 7.40526 52.5385 7.26811 52.615 7.10397C52.6915 6.93988 52.7949 6.74865 52.8447 6.67899C53.0266 6.42501 52.9216 6.28731 52.377 6.06548Z" fill="white"/>
<path d="M56.7984 9.08755C56.8222 9.05267 56.9475 8.89462 57.0767 8.73637C57.2059 8.57811 57.3306 8.4438 57.3539 8.43795C57.4098 8.4239 57.6789 8.63042 57.6885 8.69479C57.6927 8.72241 57.4979 8.99951 57.2557 9.31052C57.0134 9.62154 56.8186 9.8983 56.8227 9.92557C56.8268 9.95278 56.7775 9.98248 56.7131 9.99149C56.6488 10.0005 56.5866 10.0621 56.575 10.1283C56.5634 10.1946 56.5103 10.2549 56.457 10.2623C56.4038 10.2698 56.3769 10.2877 56.3973 10.3021C56.4176 10.3165 56.3739 10.411 56.3 10.5121C56.2262 10.613 56.1398 10.7762 56.1081 10.8746C56.0765 10.973 56.0332 11.1018 56.0121 11.1609C55.96 11.3063 56.0028 11.5595 56.0776 11.549C56.1109 11.5443 56.1453 11.588 56.154 11.6461C56.1722 11.7667 56.5342 12.0136 56.6659 11.9952C56.7142 11.9884 56.7744 12.0064 56.7997 12.0352C56.8689 12.1137 57.099 12.0641 57.3144 11.9241C57.6029 11.7366 57.9776 11.3255 58.6172 10.4947L59.1945 9.74479L59.374 9.87201C59.4727 9.94199 59.5555 10.0127 59.558 10.0291C59.571 10.1159 58.127 11.8746 57.8669 12.0887C57.597 12.3109 57.5168 12.3459 57.1628 12.3955C56.9162 12.43 56.684 12.4264 56.5558 12.386C56.2982 12.3047 55.8358 11.9966 55.8207 11.8961C55.8146 11.8551 55.7823 11.8253 55.749 11.83C55.7157 11.8347 55.6768 11.7608 55.6625 11.6659C55.6483 11.571 55.6062 11.4976 55.569 11.5028C55.5021 11.5122 55.5011 11.4801 55.5541 11.0276C55.582 10.7884 55.8376 10.2517 55.9999 10.0914C56.0909 10.0015 56.6804 9.26038 56.7984 9.08755Z" fill="white"/>
<path d="M61.6966 12.412C61.6309 12.3558 61.6454 12.3096 61.7676 12.1858L61.9211 12.0302L62.2877 12.4007C62.4894 12.6045 62.677 12.7769 62.7048 12.7838C62.7327 12.7907 62.762 12.8402 62.7701 12.8939C62.7781 12.9475 62.8448 13.0211 62.9183 13.0574C62.9917 13.0936 63.056 13.1515 63.0612 13.1861C63.0664 13.2206 63.1265 13.2922 63.1948 13.3452C63.2631 13.3984 63.4185 13.5533 63.5402 13.6896C63.6619 13.826 63.782 13.9347 63.8073 13.9312C63.8326 13.9277 63.827 13.9814 63.7949 14.0505C63.7288 14.1931 63.4095 14.2698 63.3912 14.1476C63.3849 14.106 63.3237 14.0287 63.2552 13.9757C63.1866 13.9227 63.0533 13.791 62.959 13.6831C62.8645 13.5752 62.7594 13.4908 62.7253 13.4956C62.6719 13.5031 62.5658 13.5987 62.2615 13.9139C62.2259 13.9507 62.1685 13.9848 62.1338 13.9896C62.0991 13.9945 62.0746 14.0243 62.0793 14.056C62.0841 14.0876 62.0471 14.1192 61.9972 14.1262C61.9472 14.1332 61.9103 14.1649 61.915 14.1965C61.9198 14.2281 61.8828 14.2597 61.8328 14.2667C61.7829 14.2737 61.7459 14.3054 61.7507 14.337C61.7554 14.3686 61.7185 14.4002 61.6685 14.4072C61.6186 14.4142 61.581 14.4417 61.585 14.4682C61.589 14.4948 61.5276 14.5562 61.4486 14.6046C61.3696 14.653 61.2759 14.7238 61.2404 14.7618C60.9925 15.0271 60.91 15.1016 60.8141 15.146C60.7543 15.1736 60.709 15.2204 60.7134 15.2499C60.7179 15.2794 60.6806 15.3093 60.6307 15.3163C60.5807 15.3233 60.5438 15.3549 60.5485 15.3865C60.5533 15.4182 60.5163 15.4498 60.4664 15.4568C60.4164 15.4638 60.3794 15.4954 60.3842 15.527C60.401 15.6391 60.1518 15.6163 60.0395 15.4955C59.9084 15.3544 59.9266 15.18 60.0746 15.1592C60.1303 15.1514 60.2074 15.0878 60.2459 15.0178C60.2844 14.9478 60.3543 14.8851 60.4013 14.8785C60.4483 14.8719 60.5239 14.8143 60.5693 14.7504C60.6147 14.6866 60.8064 14.5077 60.9953 14.353C61.1843 14.1983 61.3362 14.0522 61.3329 14.0284C61.3296 14.0046 61.3678 13.9795 61.4178 13.9725C61.4677 13.9655 61.5047 13.9339 61.4999 13.9022C61.4952 13.8706 61.5321 13.839 61.5821 13.832C61.632 13.825 61.669 13.7934 61.6642 13.7617C61.6595 13.7301 61.6913 13.6992 61.735 13.6931C61.7787 13.687 61.8603 13.6291 61.9165 13.5644C61.9727 13.4997 62.0867 13.3906 62.1699 13.3219C62.3179 13.1998 62.3534 12.9016 62.2178 12.9206C62.1845 12.9252 62.1529 12.9004 62.1477 12.8654C62.1394 12.8102 62.0103 12.6803 61.6966 12.412Z" fill="white"/>
<path d="M69.6509 27.2643C69.7439 27.1371 69.8733 27.0431 70.0017 27.0093C70.4203 26.8993 70.738 26.928 70.9771 27.0975C71.2739 27.3079 71.369 27.5035 71.4559 28.0815L71.5385 28.6309L71.3331 28.6597C71.1321 28.6878 70.974 28.577 71.0869 28.487C71.1159 28.4638 71.1171 28.2949 71.0896 28.1116C71.0517 27.86 70.9984 27.7352 70.8719 27.6023C70.7257 27.4487 70.6669 27.4291 70.4111 27.4492C70.166 27.4684 70.1023 27.4966 70.0229 27.6211C69.9706 27.7029 69.9048 27.8051 69.8767 27.8481C69.8485 27.891 69.8353 27.992 69.8474 28.0724C69.8595 28.1529 69.8421 28.2225 69.8088 28.2271C69.7756 28.2318 69.756 28.2866 69.7653 28.349C69.8102 28.6473 69.3946 29.2837 69.1307 29.3207C69.0574 29.331 68.9863 29.374 68.9728 29.4163C68.9532 29.4776 68.939 29.4796 68.902 29.4258C68.8765 29.3888 68.8334 29.3763 68.8062 29.398C68.59 29.5705 67.7924 29.2053 67.7486 28.9138C67.7362 28.8313 67.699 28.7588 67.666 28.7526C67.59 28.7384 67.4789 28.1421 67.4838 27.7747C67.4872 27.5226 67.5033 27.4931 67.6474 27.4736C67.7353 27.4619 67.8517 27.4712 67.9062 27.4944C67.9891 27.5297 67.9954 27.5579 67.945 27.6674C67.8621 27.8475 67.9006 28.5533 67.9926 28.5404C68.0307 28.5351 68.0697 28.5825 68.0792 28.6457C68.0887 28.709 68.1237 28.757 68.157 28.7523C68.1903 28.7476 68.2233 28.7821 68.2304 28.829C68.2374 28.8759 68.3206 28.9208 68.4153 28.9287C68.51 28.9366 68.6254 28.9639 68.6717 28.9892C68.7284 29.0202 68.7527 29.0142 68.7461 28.9706C68.7408 28.9351 68.8065 28.8963 68.8921 28.8843C69.0517 28.8619 69.2033 28.722 69.1868 28.6122C69.1817 28.5783 69.2048 28.5468 69.2381 28.5421C69.2713 28.5374 69.291 28.4834 69.2818 28.4219C69.2726 28.3605 69.2899 28.2905 69.3202 28.2663C69.3506 28.242 69.3677 28.1706 69.3582 28.1074C69.3319 27.9328 69.4856 27.49 69.6509 27.2643Z" fill="white"/>
<path fill-rule="evenodd" clip-rule="evenodd" d="M64.1961 17.0363C63.9591 17.1555 63.7279 17.3051 63.6826 17.3688C63.6371 17.4325 63.5714 17.4886 63.5366 17.4935C63.4346 17.5078 63.0572 18.0954 63.0748 18.2126C63.0837 18.2714 63.0605 18.3238 63.0234 18.329C62.9275 18.3424 63.1521 19.4106 63.2902 19.5981C63.3493 19.6784 63.4182 19.7414 63.4432 19.7382C63.4682 19.7349 63.4936 19.7649 63.4996 19.8048C63.5056 19.8447 63.6047 19.9299 63.7199 19.9942C63.8351 20.0585 63.9703 20.1384 64.0203 20.1717C64.0703 20.2051 64.1518 20.2267 64.2014 20.2198C64.2509 20.2128 64.3046 20.2321 64.3207 20.2625C64.3641 20.3449 65.3335 20.2699 65.3743 20.1809C65.3923 20.1417 65.4739 20.1002 65.5556 20.0887C65.6374 20.0773 65.7481 20.0384 65.8017 20.0024C65.8553 19.9663 65.9726 19.8906 66.0623 19.8341C66.2799 19.6971 66.8409 19.0052 66.8242 18.8944C66.817 18.8461 66.8368 18.7942 66.8682 18.779C66.9537 18.7377 66.8888 17.8461 66.8013 17.8583C66.7631 17.8637 66.7202 17.7904 66.7059 17.6955C66.6916 17.6006 66.6527 17.5267 66.6194 17.5314C66.5861 17.5361 66.5529 17.5 66.5456 17.4512C66.5382 17.4024 66.5003 17.335 66.4614 17.3014C66.053 16.9493 65.7166 16.7863 65.4338 16.8034C65.3466 16.8087 65.2722 16.7928 65.2685 16.7681C65.2535 16.6686 64.605 16.8308 64.1961 17.0363ZM65.5255 17.2735C65.4279 17.2872 65.3443 17.2725 65.3395 17.2409C65.3168 17.09 64.4533 17.4105 64.0551 17.7175C63.8728 17.858 63.5725 18.2337 63.5836 18.3073C63.5885 18.34 63.5653 18.3706 63.532 18.3752C63.4987 18.3799 63.479 18.4339 63.4882 18.4954C63.4974 18.5568 63.4771 18.6293 63.443 18.6565C63.3511 18.7299 63.5014 19.2038 63.691 19.4384C63.8922 19.6873 64.0156 19.7759 64.1373 19.7588C64.1896 19.7515 64.236 19.7693 64.2403 19.7984C64.2529 19.8817 65.0457 19.8347 65.1149 19.7467C65.1471 19.7058 65.2632 19.6598 65.3731 19.6444C65.483 19.629 65.569 19.5905 65.5642 19.5589C65.5595 19.5272 65.5961 19.4957 65.6457 19.4887C65.8118 19.4654 66.2707 18.9323 66.3759 18.6404C66.4613 18.4036 66.3825 17.7784 66.2525 17.6602C65.9574 17.3922 65.6907 17.2504 65.5255 17.2735Z" fill="white"/>
<path fill-rule="evenodd" clip-rule="evenodd" d="M68.8668 21.7921C68.8711 21.8205 68.7609 21.8738 68.6219 21.9104C68.3689 21.9772 67.8027 22.1896 67.6418 22.2782C67.5947 22.3041 67.4763 22.3493 67.3788 22.3786C67.2812 22.4079 67.0444 22.4983 66.8526 22.5795C66.6608 22.6607 66.4038 22.7548 66.2814 22.7886C66.159 22.8223 66.0623 22.8731 66.0665 22.9014C66.0708 22.9297 65.9948 22.9641 65.8976 22.9777C65.6032 23.0189 65.5374 23.0824 65.5693 23.2943C65.5865 23.409 65.6302 23.4875 65.6751 23.4847C65.8881 23.4714 66.1736 23.3922 66.1844 23.3434C66.1912 23.313 66.2728 23.2775 66.3657 23.2645C66.4587 23.2515 66.6447 23.1858 66.7791 23.1185C67.135 22.9403 67.2463 22.9372 67.2715 23.1047C67.2831 23.182 67.3223 23.2573 67.3585 23.2722C67.4455 23.308 67.4947 23.6522 67.4387 23.8336C67.3948 23.9759 66.939 24.3782 66.5828 24.5891C66.4814 24.6492 66.4013 24.7179 66.4049 24.7418C66.4085 24.7657 66.3706 24.791 66.3206 24.798C66.21 24.8135 66.2199 24.9131 66.3513 25.1046C66.4423 25.2373 66.611 25.2908 66.5946 25.1818C66.5908 25.156 66.6776 25.086 66.7876 25.0262C66.8976 24.9665 66.9845 24.8965 66.9806 24.8707C66.9767 24.845 67.0239 24.8169 67.0854 24.8083C67.1469 24.7997 67.2523 24.7321 67.3195 24.658C67.3868 24.584 67.4607 24.5208 67.4838 24.5175C67.5594 24.5069 67.7545 24.262 67.7438 24.191C67.7381 24.1529 67.7659 24.0804 67.8056 24.0299C67.8672 23.9515 67.9102 23.96 68.1001 24.0883C68.2879 24.2152 68.3828 24.2347 68.7129 24.2138C68.9822 24.1968 69.1004 24.1689 69.0936 24.1238C69.0882 24.0878 69.1243 24.0527 69.1739 24.0457C69.309 24.0268 69.4768 23.8245 69.5712 23.5666C69.6617 23.3193 69.6106 22.7269 69.4946 22.6792C69.4584 22.6643 69.4217 22.6048 69.413 22.5471C69.3895 22.3907 69.1096 21.8631 69.0126 21.7923C68.9133 21.7198 68.8559 21.7197 68.8668 21.7921ZM69.1856 23.0945C69.2438 23.0664 69.1379 22.7771 68.9588 22.4753C68.8585 22.3063 68.6943 22.3104 68.3536 22.4904C68.2434 22.5486 68.0975 22.6055 68.0295 22.6169C67.7759 22.6592 67.6005 22.819 67.6249 22.9853C67.6378 23.0723 67.6755 23.1397 67.7088 23.135C67.7421 23.1304 67.781 23.2042 67.7952 23.2991C67.8095 23.394 67.8484 23.4679 67.8817 23.4632C67.915 23.4586 67.9481 23.494 67.9553 23.5419C67.9761 23.6801 68.3678 23.8058 68.6535 23.766C68.7951 23.7463 68.9069 23.7043 68.9022 23.6726C68.8974 23.641 68.9227 23.611 68.9584 23.606C69.0725 23.59 69.1722 23.4128 69.15 23.2652C69.1382 23.1865 69.1542 23.1097 69.1856 23.0945Z" fill="white"/>
<path d="M15.5191 52.4258L14.9295 52.4191L14.6382 52.9318L7.20279 66.0192L6.35401 67.5132H8.07227H37.1256L66.2109 68.0041L67.9526 68.0335L67.0997 66.5146L59.7527 53.4318L59.4699 52.9281L58.8923 52.9215L15.5191 52.4258Z" fill="url(#paint0_linear)" stroke="white" stroke-width="2"/>
<path d="M36.6328 62.4633V64.6126L38.2769 63.2283C39.1891 62.4602 42.7446 60.8643 48.4409 62.5341C54.531 64.3194 59.551 64.1597 61.4037 63.8244L62.663 63.5966L62.1374 62.4297L57.1509 51.3595L56.9046 50.8127L56.3063 50.7724C55.2749 50.703 53.5473 50.5162 51.7565 50.1837C49.9455 49.8473 48.1621 49.3779 46.9631 48.7757C45.0666 47.823 42.9567 47.7117 41.1897 47.9438C39.4464 48.1728 37.8773 48.7582 37.0393 49.3762L36.6328 49.676V50.181V62.4633Z" fill="url(#paint1_linear)" stroke="white" stroke-width="2"/>
<path d="M37.6128 62.4633V64.6126L35.9687 63.2283C35.0565 62.4602 31.501 60.8643 25.8047 62.5341C19.7146 64.3194 14.6946 64.1597 12.8419 63.8244L11.5826 63.5966L12.1082 62.4297L17.0947 51.3595L17.341 50.8127L17.9393 50.7724C18.9707 50.703 20.6984 50.5162 22.4891 50.1837C24.3001 49.8473 26.0835 49.3779 27.2825 48.7757C29.179 47.823 31.2889 47.7117 33.0559 47.9438C34.7992 48.1728 36.3683 48.7582 37.2063 49.3762L37.6128 49.676V50.181V62.4633Z" fill="url(#paint2_linear)" stroke="white" stroke-width="2"/>
<path d="M40.4152 65.7577C40.4152 66.8176 38.9727 67.6769 37.1932 67.6769C35.4137 67.6769 33.9712 66.8176 33.9712 65.7577C33.9712 64.6977 35.8279 65.038 37.1932 65.038C38.5585 65.038 40.4152 64.6977 40.4152 65.7577Z" fill="url(#paint3_linear)"/>
<path d="M38.6128 64.9295C38.6128 65.4065 37.9502 65.7932 37.1328 65.7932C36.3155 65.7932 35.6528 65.4065 35.6528 64.9295C35.6528 64.4526 36.5057 64.6057 37.1328 64.6057C37.76 64.6057 38.6128 64.4526 38.6128 64.9295Z" fill="white"/>
<rect x="14.668" y="67.6761" width="43.8618" height="6.32363" fill="white"/>
<defs>
<linearGradient id="paint0_linear" x1="51.9658" y1="63.3122" x2="51.3913" y2="68.0494" gradientUnits="userSpaceOnUse">
<stop stop-color="#ECBF8C"/>
<stop offset="1" stop-color="#DFC188"/>
</linearGradient>
<linearGradient id="paint1_linear" x1="55.3373" y1="50.4799" x2="47.1634" y2="58.6634" gradientUnits="userSpaceOnUse">
<stop stop-color="#ECBF8C"/>
<stop offset="1" stop-color="#DFC188"/>
</linearGradient>
<linearGradient id="paint2_linear" x1="18.9083" y1="50.4799" x2="27.0822" y2="58.6634" gradientUnits="userSpaceOnUse">
<stop stop-color="#ECBF8C"/>
<stop offset="1" stop-color="#DFC188"/>
</linearGradient>
<linearGradient id="paint3_linear" x1="38.8069" y1="64.2818" x2="36.5969" y2="66.5168" gradientUnits="userSpaceOnUse">
<stop stop-color="#ECBF8C"/>
<stop offset="1" stop-color="#DFC188"/>
</linearGradient>
</defs>
</svg>
