<svg width="24" height="24" viewBox="0 0 24 24" fill="none" xmlns="http://www.w3.org/2000/svg">
<path d="M0 2.32258C0 1.03986 1.03985 0 2.32258 0H8.51613C9.79885 0 10.8387 1.03985 10.8387 2.32258V8.51613C10.8387 9.79885 9.79885 10.8387 8.51613 10.8387H2.32258C1.03986 10.8387 0 9.79885 0 8.51613V2.32258Z" fill="#203B9A"/>
<path d="M0 15.4839C0 14.2011 1.03985 13.1613 2.32258 13.1613H8.51613C9.79885 13.1613 10.8387 14.2011 10.8387 15.4839V21.6774C10.8387 22.9601 9.79885 24 8.51613 24H2.32258C1.03986 24 0 22.9601 0 21.6774V15.4839Z" fill="#203B9A"/>
<path d="M13.1613 2.32258C13.1613 1.03986 14.2011 0 15.4839 0H21.6774C22.9601 0 24 1.03985 24 2.32258V8.51613C24 9.79885 22.9601 10.8387 21.6774 10.8387H15.4839C14.2011 10.8387 13.1613 9.79885 13.1613 8.51613V2.32258Z" fill="#203B9A"/>
<path d="M13.1613 15.4839C13.1613 14.2011 14.2011 13.1613 15.4839 13.1613H21.6774C22.9601 13.1613 24 14.2011 24 15.4839V21.6774C24 22.9601 22.9601 24 21.6774 24H15.4839C14.2011 24 13.1613 22.9601 13.1613 21.6774V15.4839Z" fill="#203B9A"/>
</svg>
