<svg width="24" height="24" viewBox="0 0 24 24" fill="none" xmlns="http://www.w3.org/2000/svg">
<path d="M12.0273 9C12.5796 9 13.0273 8.55228 13.0273 8C13.0273 7.44772 12.5796 7 12.0273 7C11.4751 7 11.0273 7.44772 11.0273 8C11.0273 8.55228 11.4751 9 12.0273 9Z" stroke="#939393" stroke-width="2" stroke-linecap="round" stroke-linejoin="round"/>
<path d="M12.0273 17C12.5796 17 13.0273 16.5523 13.0273 16C13.0273 15.4477 12.5796 15 12.0273 15C11.4751 15 11.0273 15.4477 11.0273 16C11.0273 16.5523 11.4751 17 12.0273 17Z" stroke="#939393" stroke-width="2" stroke-linecap="round" stroke-linejoin="round"/>
<path d="M19.0273 9C19.5796 9 20.0273 8.55228 20.0273 8C20.0273 7.44772 19.5796 7 19.0273 7C18.4751 7 18.0273 7.44772 18.0273 8C18.0273 8.55228 18.4751 9 19.0273 9Z" stroke="#939393" stroke-width="2" stroke-linecap="round" stroke-linejoin="round"/>
<path d="M19.0273 17C19.5796 17 20.0273 16.5523 20.0273 16C20.0273 15.4477 19.5796 15 19.0273 15C18.4751 15 18.0273 15.4477 18.0273 16C18.0273 16.5523 18.4751 17 19.0273 17Z" stroke="#939393" stroke-width="2" stroke-linecap="round" stroke-linejoin="round"/>
<path d="M5.02734 9C5.57963 9 6.02734 8.55228 6.02734 8C6.02734 7.44772 5.57963 7 5.02734 7C4.47506 7 4.02734 7.44772 4.02734 8C4.02734 8.55228 4.47506 9 5.02734 9Z" stroke="#939393" stroke-width="2" stroke-linecap="round" stroke-linejoin="round"/>
<path d="M5.02734 17C5.57963 17 6.02734 16.5523 6.02734 16C6.02734 15.4477 5.57963 15 5.02734 15C4.47506 15 4.02734 15.4477 4.02734 16C4.02734 16.5523 4.47506 17 5.02734 17Z" stroke="#939393" stroke-width="2" stroke-linecap="round" stroke-linejoin="round"/>
</svg>
