<svg width="33" height="33" viewBox="0 0 33 33" fill="none" xmlns="http://www.w3.org/2000/svg">
<path d="M31.4498 19.6565L31.416 19.6293L29.1519 17.8537C29.0086 17.7403 28.8941 17.5945 28.8181 17.4282C28.742 17.262 28.7064 17.0801 28.7143 16.8974V16.0681C28.7072 15.8866 28.7431 15.706 28.8193 15.5412C28.8955 15.3763 29.0098 15.2319 29.1527 15.1197L31.416 13.3435L31.4498 13.3162C31.7988 13.0254 32.0331 12.62 32.1106 12.1723C32.1881 11.7247 32.1039 11.264 31.873 10.8728L28.809 5.57126C28.8055 5.56626 28.8024 5.56098 28.7997 5.55548C28.5675 5.16964 28.2076 4.87729 27.7823 4.72921C27.3571 4.58112 26.8934 4.58665 26.4718 4.74483L26.4467 4.75415L23.7851 5.82522C23.6172 5.89314 23.4354 5.92017 23.255 5.90408C23.0745 5.88799 22.9004 5.82924 22.7471 5.73267C22.5118 5.58441 22.2726 5.44428 22.0297 5.31228C21.8722 5.22686 21.7369 5.10562 21.6349 4.95832C21.5328 4.81103 21.4668 4.64182 21.4421 4.46433L21.0411 1.62417L21.0325 1.57252C20.9452 1.13262 20.7092 0.736167 20.364 0.4498C20.0188 0.163433 19.5856 0.00460213 19.1372 0H13.002C12.5473 0.00145525 12.1076 0.163362 11.7605 0.457196C11.4133 0.751031 11.1811 1.15794 11.1045 1.60624L11.0981 1.64641L10.6985 4.4923C10.674 4.66929 10.6085 4.8381 10.5072 4.98531C10.406 5.13252 10.2718 5.25407 10.1153 5.34026C9.86991 5.47226 9.6303 5.61215 9.39786 5.75778C9.24481 5.85376 9.07118 5.91206 8.89123 5.9279C8.71127 5.94374 8.53013 5.91666 8.36267 5.84889L5.69899 4.7728L5.67388 4.76276C5.25167 4.60441 4.7873 4.59909 4.36158 4.74773C3.93585 4.89637 3.5757 5.18956 3.3438 5.57628L3.33447 5.59206L0.266187 10.8972C0.0349215 11.2888 -0.0494866 11.75 0.0280569 12.1981C0.1056 12.6463 0.340039 13.0523 0.689448 13.3435L0.723166 13.3707L2.98725 15.1463C3.13063 15.2597 3.24506 15.4055 3.32113 15.5718C3.3972 15.738 3.43275 15.9199 3.42486 16.1026V16.9319C3.43205 17.1134 3.39606 17.294 3.31986 17.4588C3.24366 17.6237 3.12942 17.7681 2.98654 17.8803L0.723166 19.6565L0.689448 19.6838C0.340384 19.9746 0.106137 20.38 0.0285936 20.8277C-0.0489496 21.2753 0.0352681 21.736 0.266187 22.1272L3.33017 27.4287C3.33369 27.4337 3.33681 27.439 3.33949 27.4445C3.57166 27.8304 3.93162 28.1227 4.35687 28.2708C4.78213 28.4189 5.24582 28.4134 5.66743 28.2552L5.69254 28.2458L8.3519 27.1748C8.51989 27.1069 8.70161 27.0798 8.88209 27.0959C9.06257 27.112 9.23665 27.1708 9.38997 27.2673C9.62528 27.4161 9.86441 27.5562 10.1074 27.6877C10.2649 27.7731 10.4001 27.8944 10.5022 28.0417C10.6042 28.189 10.6703 28.3582 10.6949 28.5357L11.0938 31.3758L11.1024 31.4275C11.1898 31.8681 11.4265 32.2651 11.7726 32.5515C12.1186 32.838 12.5528 32.9964 13.002 33H19.1372C19.5919 32.9985 20.0316 32.8366 20.3787 32.5428C20.7259 32.249 20.9581 31.8421 21.0347 31.3938L21.0411 31.3536L21.4407 28.5077C21.4656 28.3304 21.5316 28.1613 21.6335 28.0141C21.7354 27.8669 21.8704 27.7455 22.0275 27.6597C22.2729 27.5277 22.5125 27.3878 22.7449 27.2422C22.898 27.1462 23.0716 27.0879 23.2516 27.0721C23.4315 27.0563 23.6127 27.0833 23.7801 27.1511L26.4438 28.2236L26.4689 28.2337C26.8911 28.3923 27.3556 28.3978 27.7814 28.2491C28.2072 28.1004 28.5673 27.8071 28.799 27.4201C28.8018 27.4147 28.8049 27.4094 28.8083 27.4043L31.8723 22.1035C32.104 21.7119 32.1887 21.2507 32.1113 20.8023C32.0339 20.3539 31.7994 19.9477 31.4498 19.6565ZM21.8023 16.7697C21.75 17.8807 21.3761 18.9525 20.726 19.8549C20.0759 20.7572 19.1777 21.4513 18.1404 21.8526C17.1032 22.2539 15.9717 22.3452 14.8835 22.1154C13.7954 21.8856 12.7974 21.3446 12.0111 20.5581C11.2247 19.7716 10.6838 18.7736 10.4541 17.6854C10.2244 16.5972 10.3158 15.4658 10.7173 14.4286C11.1187 13.3914 11.8129 12.4932 12.7153 11.8432C13.6178 11.1932 14.6896 10.8194 15.8006 10.7673C16.5981 10.7322 17.3943 10.8634 18.1384 11.1527C18.8825 11.4419 19.5583 11.8828 20.1228 12.4474C20.6872 13.0119 21.1281 13.6877 21.4172 14.4319C21.7064 15.176 21.8375 15.9722 21.8023 16.7697Z" fill="white"/>
</svg>
