<svg width="27" height="21" viewBox="0 0 27 21" fill="none" xmlns="http://www.w3.org/2000/svg">
<path d="M22.875 13.5L26 16.625L22.875 19.75M22.875 1L26 4.125L22.875 7.25M1 16.625H6.54622C7.40359 16.625 8.2477 16.4133 9.00363 16.0088C9.75956 15.6042 10.4039 15.0193 10.8796 14.306L13.5 10.375M1 4.125H6.54622C7.40359 4.12501 8.2477 4.33669 9.00363 4.74123C9.75956 5.14577 10.4039 5.73066 10.8796 6.44401L16.1204 14.306C16.5961 15.0193 17.2404 15.6042 17.9964 16.0088C18.7523 16.4133 19.5964 16.625 20.4538 16.625H23.9167M23.9167 4.125H20.4538C19.5964 4.12501 18.7523 4.33669 17.9964 4.74123C17.2404 5.14577 16.5961 5.73066 16.1204 6.44401L15.5833 7.25" stroke="#585858" stroke-width="2" stroke-linecap="round" stroke-linejoin="round"/>
</svg>
