<svg width="36" height="33" viewBox="0 0 36 33" fill="none" xmlns="http://www.w3.org/2000/svg">
<path d="M33.0757 11.432H27.3267L19.1483 0.571599C19.0147 0.394123 18.8414 0.250075 18.6421 0.150863C18.4429 0.0516511 18.2232 0 18.0005 0C17.7777 0 17.558 0.0516511 17.3588 0.150863C17.1596 0.250075 16.9863 0.394123 16.8526 0.571599L8.67429 11.432H2.92524C2.15186 11.4308 1.40958 11.7351 0.861205 12.2783C0.31283 12.8214 0.00313665 13.559 5.06954e-05 14.3293C-0.00161942 14.6016 0.0379847 14.8726 0.117525 15.1331L4.26678 29.7035C4.53659 30.6531 5.1104 31.489 5.90096 32.084C6.69152 32.6791 7.65557 33.0007 8.6465 33H27.3545C28.3455 32.9969 29.3089 32.6747 30.1009 32.0813C30.8928 31.488 31.4708 30.6554 31.7485 29.708L35.9032 15.1179C35.9223 15.0488 35.9361 14.9783 35.9444 14.9071L35.9919 14.4668C35.9973 14.4209 36 14.3746 36 14.3284C35.9967 13.5584 35.687 12.8212 35.1388 12.2783C34.5907 11.7354 33.8488 11.431 33.0757 11.432ZM18.0005 3.81096L23.7397 11.432H12.2613L18.0005 3.81096ZM18.0005 25.6925C17.3325 25.6893 16.6805 25.4891 16.1267 25.1172C15.5728 24.7453 15.142 24.2183 14.8886 23.6028C14.6352 22.9873 14.5705 22.3108 14.7028 21.6587C14.8351 21.0066 15.1583 20.4082 15.6318 19.9389C16.1052 19.4696 16.7076 19.1505 17.363 19.0219C18.0183 18.8933 18.6973 18.9609 19.3141 19.2162C19.9309 19.4715 20.4579 19.9031 20.8287 20.4564C21.1995 21.0098 21.3973 21.6601 21.3974 22.3254C21.3924 23.2193 21.0323 24.0749 20.3957 24.7052C19.7592 25.3355 18.898 25.6891 18.0005 25.6889V25.6925Z" fill="white"/>
</svg>
