<svg width="33" height="40" viewBox="0 0 33 40" fill="none" xmlns="http://www.w3.org/2000/svg">
<circle cx="16.2162" cy="23.4735" r="15.2162" stroke="#2B4BBE" stroke-width="2"/>
<circle cx="16.3291" cy="23.5862" r="11.7002" stroke="#2B4BBE" stroke-width="2"/>
<path d="M17.8705 22.3404C18.434 23.3164 18.0996 24.5644 17.1236 25.1279C16.1477 25.6913 14.8997 25.357 14.3362 24.381C14.2947 24.3092 14.2474 24.2276 14.195 24.1374C13.7056 23.2944 12.7756 21.6928 12.0763 20.1589C11.6855 19.3016 11.3973 18.5301 11.2835 17.9566C11.2587 17.8314 11.245 17.7292 11.2385 17.6478C11.4187 17.6835 11.66 17.7598 11.961 17.8879C12.6422 18.1778 13.4759 18.6663 14.3247 19.2484C15.1674 19.8264 15.991 20.4732 16.6487 21.0576C17.3409 21.6725 17.7502 22.1321 17.8705 22.3404Z" stroke="#2B4BBE" stroke-width="2"/>
<rect x="11.8867" y="1" width="8.88587" height="3.08007" stroke="#2B4BBE" stroke-width="2"/>
<rect x="14.0625" y="4.62866" width="4.53152" height="3.08007" stroke="#2B4BBE" stroke-width="2"/>
</svg>
