<svg width="21" height="20" viewBox="0 0 21 20" fill="none" xmlns="http://www.w3.org/2000/svg">
<path fill-rule="evenodd" clip-rule="evenodd" d="M9.22696 6.81274C9.61897 6.60893 10.0541 6.49999 10.5 6.49999C10.974 6.49999 11.436 6.62313 11.8468 6.8525L14.0799 4.74347C12.9655 4.26087 11.7531 3.99999 10.5 3.99999C9.30926 3.99999 8.1553 4.23554 7.08726 4.67304L9.22696 6.81274ZM7.87849 8.29269L5.26173 5.67594C3.92506 6.6199 2.81867 7.9261 2.08091 9.49999C2.84645 11.1331 4.00889 12.4781 5.41367 13.4291L7.91188 10.7839C7.73216 10.3863 7.63636 9.94834 7.63636 9.49999C7.63636 9.08028 7.72032 8.66963 7.87849 8.29269ZM9.30201 12.2249L7.254 14.3933C8.27501 14.7882 9.37097 15 10.5 15C11.6907 15 12.8447 14.7644 13.9127 14.327L11.773 12.1873C11.381 12.3911 10.9459 12.5 10.5 12.5C10.0824 12.5 9.67417 12.4044 9.30201 12.2249ZM13.1215 10.7073L15.7383 13.324C17.0749 12.3801 18.1813 11.0739 18.9191 9.49999C18.2094 7.98594 17.1585 6.71961 15.8897 5.78518L13.1528 8.37009C13.2907 8.72555 13.3636 9.10884 13.3636 9.49999C13.3636 9.91971 13.2797 10.3304 13.1215 10.7073ZM17.335 4.42025C18.9597 5.72108 20.238 7.47426 21 9.49999C20.2083 11.6045 18.8595 13.4149 17.1437 14.7295L20.2071 17.7929L18.7929 19.2071L15.4089 15.8231C13.9251 16.5771 12.2599 17 10.5 17C8.82382 17 7.23358 16.6164 5.80413 15.9285L2.72701 19.1866L1.27299 17.8134L4.04905 14.874C2.24155 13.5491 0.821078 11.6828 0 9.49999C0.791659 7.39544 2.14053 5.58506 3.85626 4.27047L1.29289 1.7071L2.70711 0.292887L5.5911 3.17687C7.0749 2.42287 8.74007 1.99999 10.5 1.99999C12.3444 1.99999 14.0847 2.46444 15.6213 3.28772L18.8134 0.27298L20.1866 1.72701L17.335 4.42025Z" fill="black"/>
</svg>
