<svg width="18" height="12" viewBox="0 0 18 12" fill="none" xmlns="http://www.w3.org/2000/svg">
<path d="M9 3.37476C9.59674 3.37476 10.169 3.61181 10.591 4.03377C11.0129 4.45572 11.25 5.02802 11.25 5.62476C11.25 6.22149 11.0129 6.79379 10.591 7.21575C10.169 7.6377 9.59674 7.87476 9 7.87476C8.40326 7.87476 7.83097 7.6377 7.40901 7.21575C6.98705 6.79379 6.75 6.22149 6.75 5.62476C6.75 5.02802 6.98705 4.45572 7.40901 4.03377C7.83097 3.61181 8.40326 3.37476 9 3.37476ZM9 -0.000244141C12.75 -0.000244141 15.9525 2.33226 17.25 5.62476C15.9525 8.91726 12.75 11.2498 9 11.2498C5.25 11.2498 2.0475 8.91726 0.75 5.62476C2.0475 2.33226 5.25 -0.000244141 9 -0.000244141ZM2.385 5.62476C3.6225 8.14476 6.18 9.74976 9 9.74976C11.82 9.74976 14.3775 8.14476 15.615 5.62476C14.3775 3.10476 11.82 1.49976 9 1.49976C6.18 1.49976 3.6225 3.10476 2.385 5.62476Z" fill="white"/>
</svg>
