<svg width="26" height="33" viewBox="0 0 26 33" fill="none" xmlns="http://www.w3.org/2000/svg">
<path d="M24.9652 13.7739H14.9217C14.0085 13.7739 13.1326 13.4111 12.4868 12.7653C11.8411 12.1196 11.4783 11.2437 11.4783 10.3304V0.286957C11.4783 0.210851 11.448 0.137862 11.3942 0.0840477C11.3404 0.0302329 11.2674 0 11.1913 0H4.5913C3.37361 0 2.2058 0.483725 1.34476 1.34476C0.483725 2.2058 0 3.37361 0 4.5913V27.5478C0 28.7655 0.483725 29.9333 1.34476 30.7944C2.2058 31.6554 3.37361 32.1391 4.5913 32.1391H20.6609C21.8786 32.1391 23.0464 31.6554 23.9074 30.7944C24.7684 29.9333 25.2522 28.7655 25.2522 27.5478V14.0609C25.2522 13.9848 25.2219 13.9118 25.1681 13.858C25.1143 13.8041 25.0413 13.7739 24.9652 13.7739Z" fill="white"/>
<path d="M24.3353 11.2336L14.0185 0.916826C13.9985 0.896881 13.973 0.883313 13.9452 0.877826C13.9175 0.87234 13.8887 0.87518 13.8626 0.88599C13.8364 0.8968 13.8141 0.915097 13.7983 0.938581C13.7825 0.962066 13.774 0.989688 13.7739 1.01798V10.3304C13.7739 10.6349 13.8948 10.9268 14.1101 11.1421C14.3254 11.3573 14.6173 11.4783 14.9217 11.4783H24.2342C24.2625 11.4781 24.2901 11.4697 24.3136 11.4539C24.3371 11.4381 24.3554 11.4158 24.3662 11.3896C24.377 11.3635 24.3798 11.3347 24.3743 11.307C24.3689 11.2792 24.3553 11.2537 24.3353 11.2336Z" fill="white"/>
</svg>
