<svg width="33" height="33" viewBox="0 0 33 33" fill="none" xmlns="http://www.w3.org/2000/svg">
    <path d="M0 2C0 0.895428 0.895431 0 2 0H7.58065C8.68522 0 9.58065 0.895431 9.58065 2V7.58065C9.58065 8.68522 8.68521 9.58065 7.58065 9.58065H2C0.895428 9.58065 0 8.68521 0 7.58065V2Z" fill="#2C4CC1"/>
    <path d="M0 13.7097C0 12.6051 0.895431 11.7097 2 11.7097H7.58065C8.68522 11.7097 9.58065 12.6051 9.58065 13.7097V19.2903C9.58065 20.3949 8.68521 21.2903 7.58065 21.2903H2C0.895428 21.2903 0 20.3949 0 19.2903V13.7097Z" fill="#2C4CC1"/>
    <path d="M0 25.4194C0 24.3148 0.895431 23.4194 2 23.4194H7.58065C8.68522 23.4194 9.58065 24.3148 9.58065 25.4194V31C9.58065 32.1046 8.68521 33 7.58065 33H2C0.895428 33 0 32.1046 0 31V25.4194Z" fill="#2C4CC1"/>
    <path d="M11.7097 2C11.7097 0.895428 12.6051 0 13.7097 0H19.2903C20.3949 0 21.2903 0.895431 21.2903 2V7.58065C21.2903 8.68522 20.3949 9.58065 19.2903 9.58065H13.7097C12.6051 9.58065 11.7097 8.68521 11.7097 7.58065V2Z" fill="#2C4CC1"/>
    <path d="M11.7097 13.7097C11.7097 12.6051 12.6051 11.7097 13.7097 11.7097H19.2903C20.3949 11.7097 21.2903 12.6051 21.2903 13.7097V19.2903C21.2903 20.3949 20.3949 21.2903 19.2903 21.2903H13.7097C12.6051 21.2903 11.7097 20.3949 11.7097 19.2903V13.7097Z" fill="#2C4CC1"/>
    <path d="M11.7097 25.4194C11.7097 24.3148 12.6051 23.4194 13.7097 23.4194H19.2903C20.3949 23.4194 21.2903 24.3148 21.2903 25.4194V31C21.2903 32.1046 20.3949 33 19.2903 33H13.7097C12.6051 33 11.7097 32.1046 11.7097 31V25.4194Z" fill="#2C4CC1"/>
    <path d="M23.4194 2C23.4194 0.895428 24.3148 0 25.4194 0H31C32.1046 0 33 0.895431 33 2V7.58065C33 8.68522 32.1046 9.58065 31 9.58065H25.4194C24.3148 9.58065 23.4194 8.68521 23.4194 7.58065V2Z" fill="#2C4CC1"/>
    <path d="M23.4194 13.7097C23.4194 12.6051 24.3148 11.7097 25.4194 11.7097H31C32.1046 11.7097 33 12.6051 33 13.7097V19.2903C33 20.3949 32.1046 21.2903 31 21.2903H25.4194C24.3148 21.2903 23.4194 20.3949 23.4194 19.2903V13.7097Z" fill="#2C4CC1"/>
    <path d="M23.4194 25.4194C23.4194 24.3148 24.3148 23.4194 25.4194 23.4194H31C32.1046 23.4194 33 24.3148 33 25.4194V31C33 32.1046 32.1046 33 31 33H25.4194C24.3148 33 23.4194 32.1046 23.4194 31V25.4194Z" fill="#2C4CC1"/>
</svg>