<svg width="26" height="26" viewBox="0 0 26 26" fill="none" xmlns="http://www.w3.org/2000/svg">
<rect x="1" y="8" width="23" height="12" fill="#E2574C"/>
<path d="M6.37357 11.0588H4.76172C4.55931 11.0588 4.36517 11.1394 4.22222 11.2828C4.07927 11.4261 3.99934 11.6205 4 11.823L4.01123 17.6092C4.01123 18.0299 4.35227 18.3709 4.77295 18.3709C5.19362 18.3709 5.53466 18.0299 5.53466 17.6092V15.8524C5.84611 15.8508 6.17882 15.8494 6.37357 15.8494C7.71196 15.8494 8.80086 14.7749 8.80086 13.4541C8.80086 12.1333 7.71196 11.0588 6.37357 11.0588ZM6.37357 14.326C6.1771 14.326 5.84316 14.3273 5.5305 14.329C5.52888 14.0047 5.52745 13.6555 5.52745 13.4541C5.52745 13.2818 5.52659 12.9212 5.52568 12.5822H6.37352C6.86346 12.5822 7.27738 12.9815 7.27738 13.4541C7.27738 13.9267 6.86351 14.326 6.37357 14.326Z" fill="white"/>
<path d="M12.8527 11.0588H11.2617C11.0595 11.0588 10.8655 11.1392 10.7226 11.2824C10.5797 11.4255 10.4996 11.6197 10.5 11.8219C10.5 11.8219 10.5113 17.4204 10.5114 17.4407C10.5121 17.6427 10.5931 17.8362 10.7365 17.9786C10.8792 18.1202 11.0721 18.1997 11.2731 18.1997H11.276C11.3241 18.1995 12.4589 18.1951 12.9126 18.1872C14.6337 18.1572 15.883 16.6608 15.883 14.6292C15.8829 12.4937 14.6652 11.0588 12.8527 11.0588ZM12.886 16.664C12.6887 16.6675 12.3493 16.6703 12.0323 16.6723C12.0301 16.0107 12.026 13.2698 12.0248 12.5822H12.8527C14.2509 12.5822 14.3595 14.149 14.3595 14.6293C14.3595 15.6293 13.9039 16.6463 12.886 16.664Z" fill="white"/>
<path d="M20.9032 12.5234C21.3239 12.5234 21.6649 12.1824 21.6649 11.7617C21.6649 11.341 21.3239 11 20.9032 11H18.5742C18.1536 11 17.8125 11.341 17.8125 11.7617V17.508C17.8125 17.9287 18.1536 18.2697 18.5742 18.2697C18.9949 18.2697 19.3359 17.9287 19.3359 17.508V15.3422H20.7182C21.1389 15.3422 21.4799 15.0012 21.4799 14.5805C21.4799 14.1598 21.1389 13.8188 20.7182 13.8188H19.3359V12.5234H20.9032Z" fill="white"/>
<path d="M22.8008 7.36328H22.2422V7.14599C22.2422 6.16682 21.8712 5.23626 21.1975 4.52563L18.0336 1.18823C17.3177 0.433113 16.3103 0 15.2697 0H5.12891C3.86887 0 2.84375 1.02512 2.84375 2.28516V7.36328H2.28516C1.02512 7.36328 0 8.3884 0 9.64844V18.7891C0 20.0491 1.02512 21.0742 2.28516 21.0742H2.84375V23.7148C2.84375 24.9749 3.86887 26 5.12891 26H19.957C21.2171 26 22.2422 24.9749 22.2422 23.7148V21.0742H22.8008C24.0608 21.0742 25.0859 20.0491 25.0859 18.7891V9.64844C25.0859 8.3884 24.0608 7.36328 22.8008 7.36328ZM4.36719 2.28516C4.36719 1.86514 4.70889 1.52344 5.12891 1.52344H15.2697C15.894 1.52344 16.4985 1.78329 16.928 2.23641L20.092 5.5738C20.4962 6.00016 20.7188 6.5585 20.7188 7.14599V7.36328H4.36719V2.28516ZM20.7188 23.7148C20.7188 24.1349 20.377 24.4766 19.957 24.4766H5.12891C4.70889 24.4766 4.36719 24.1349 4.36719 23.7148V21.0742H20.7188V23.7148ZM23.5625 18.7891C23.5625 19.2091 23.2208 19.5508 22.8008 19.5508H2.28516C1.86514 19.5508 1.52344 19.2091 1.52344 18.7891V9.64844C1.52344 9.22843 1.86514 8.88672 2.28516 8.88672H22.8008C23.2208 8.88672 23.5625 9.22843 23.5625 9.64844V18.7891Z" fill="#E2574C"/>
</svg>
