<svg width="18" height="18" viewBox="0 0 18 18" fill="none" xmlns="http://www.w3.org/2000/svg">
<path d="M17.7723 2.22567C17.9166 2.37049 17.9977 2.56663 17.9977 2.77112C17.9977 2.97561 17.9166 3.17175 17.7723 3.31657L16.1606 4.92974L13.0703 1.83938L14.6819 0.226204C14.8268 0.0813658 15.0232 0 15.2281 0C15.433 0 15.6294 0.0813658 15.7743 0.226204L17.7723 2.22413V2.22567ZM15.0682 6.02064L11.9778 2.93027L1.45049 13.4591C1.36544 13.5442 1.30142 13.6479 1.26352 13.762L0.0196482 17.4921C-0.00291022 17.5601 -0.00611317 17.633 0.0103977 17.7027C0.0269086 17.7724 0.0624829 17.8362 0.113144 17.8869C0.163805 17.9375 0.227556 17.9731 0.297273 17.9896C0.36699 18.0061 0.439925 18.0029 0.507926 17.9804L4.238 16.7365C4.35198 16.699 4.45567 16.6355 4.54085 16.5511L15.0682 6.02218V6.02064Z" fill="#2C4CC1"/>
</svg>
