<svg width="40" height="40" viewBox="0 0 40 40" fill="none" xmlns="http://www.w3.org/2000/svg">
<path fill-rule="evenodd" clip-rule="evenodd" d="M20 39C30.4934 39 39 30.4934 39 20C39 9.50659 30.4934 1 20 1C9.50659 1 1 9.50659 1 20C1 24.9111 2.86331 29.3871 5.92155 32.7594C5.5618 33.9331 4.74996 35.6644 3.31626 37.1382C2.65871 37.8142 2.95755 38.9989 3.89581 38.904C5.81262 38.71 8.22709 38.0496 10.4009 36.4004C13.2178 38.0527 16.4983 39 20 39Z" fill="white"/>
<path d="M5.92155 32.7594L6.87765 33.0525L7.04428 32.5088L6.66232 32.0877L5.92155 32.7594ZM3.31626 37.1382L2.59945 36.441L2.59945 36.441L3.31626 37.1382ZM3.89581 38.904L3.99649 39.8989H3.99649L3.89581 38.904ZM10.4009 36.4004L10.9068 35.5378L10.3296 35.1993L9.79646 35.6037L10.4009 36.4004ZM38 20C38 29.9411 29.9411 38 20 38V40C31.0457 40 40 31.0457 40 20H38ZM20 2C29.9411 2 38 10.0589 38 20H40C40 8.95431 31.0457 0 20 0V2ZM2 20C2 10.0589 10.0589 2 20 2V0C8.95431 0 0 8.95431 0 20H2ZM6.66232 32.0877C3.76438 28.8921 2 24.6533 2 20H0C0 25.169 1.96224 29.8821 5.18079 33.4312L6.66232 32.0877ZM4.03307 37.8355C5.5998 36.2249 6.48174 34.3441 6.87765 33.0525L4.96546 32.4664C4.64186 33.5221 3.90012 35.1039 2.59945 36.441L4.03307 37.8355ZM3.79512 37.909C3.78512 37.9101 3.79602 37.9076 3.82139 37.914C3.84724 37.9206 3.87619 37.9335 3.90305 37.9529C3.95733 37.9922 3.96762 38.0302 3.96603 38.0249C3.96419 38.0187 3.95903 37.9906 3.96912 37.9491C3.97839 37.911 3.99827 37.8713 4.03308 37.8355L2.59945 36.441C2.01552 37.0413 1.83711 37.8832 2.04918 38.5955C2.15739 38.959 2.37722 39.3176 2.73087 39.5734C3.09418 39.8362 3.53726 39.9454 3.99649 39.8989L3.79512 37.909ZM9.79646 35.6037C7.80448 37.115 5.57877 37.7285 3.79512 37.909L3.99649 39.8989C6.04646 39.6914 8.64971 38.9842 11.0053 37.1971L9.79646 35.6037ZM20 38C16.6809 38 13.5745 37.1026 10.9068 35.5378L9.89493 37.263C12.8611 39.0028 16.3156 40 20 40V38Z" fill="#2B4BBE"/>
<mask id="path-3-inside-1_126_440" fill="white">
<path fill-rule="evenodd" clip-rule="evenodd" d="M12.3664 23.4968C9.36922 23.297 7 20.8026 7 17.7549C7 14.5765 9.57654 12 12.7549 12C15.7501 12 18.2108 14.2882 18.4844 17.2118C18.4929 17.2041 18.5013 17.1964 18.5097 17.1888C18.7725 20.1844 17.8321 25.8411 12.7603 28.1486C11.8358 28.5692 11.0806 27.191 11.5522 26.2915C11.9817 25.4725 12.3036 24.5259 12.3664 23.4968Z"/>
</mask>
<path fill-rule="evenodd" clip-rule="evenodd" d="M12.3664 23.4968C9.36922 23.297 7 20.8026 7 17.7549C7 14.5765 9.57654 12 12.7549 12C15.7501 12 18.2108 14.2882 18.4844 17.2118C18.4929 17.2041 18.5013 17.1964 18.5097 17.1888C18.7725 20.1844 17.8321 25.8411 12.7603 28.1486C11.8358 28.5692 11.0806 27.191 11.5522 26.2915C11.9817 25.4725 12.3036 24.5259 12.3664 23.4968Z" fill="white"/>
<path d="M12.3664 23.4968L14.3627 23.6185L14.4837 21.6335L12.4994 21.5012L12.3664 23.4968ZM18.4844 17.2118L16.4931 17.3982L16.8667 21.3901L19.8311 18.6905L18.4844 17.2118ZM18.5097 17.1888L20.5021 17.014L20.1492 12.9912L17.1633 15.71L18.5097 17.1888ZM12.7603 28.1486L13.5885 29.969H13.5885L12.7603 28.1486ZM11.5522 26.2915L13.3235 27.2202L13.3235 27.2202L11.5522 26.2915ZM12.4994 21.5012C10.5458 21.371 9 19.7426 9 17.7549H5C5 21.8626 8.19266 25.2231 12.2334 25.4924L12.4994 21.5012ZM9 17.7549C9 15.6811 10.6811 14 12.7549 14V10C8.47197 10 5 13.472 5 17.7549H9ZM12.7549 14C14.708 14 16.3148 15.4927 16.4931 17.3982L20.4757 17.0255C20.1068 13.0836 16.7921 10 12.7549 10V14ZM17.1633 15.71C17.1548 15.7176 17.1463 15.7254 17.1378 15.7331L19.8311 18.6905C19.8395 18.6829 19.8479 18.6753 19.8562 18.6676L17.1633 15.71ZM13.5885 29.969C16.6894 28.5582 18.5068 26.1176 19.4907 23.6737C20.4607 21.2644 20.657 18.7795 20.5021 17.014L16.5174 17.3636C16.6253 18.5936 16.4827 20.4349 15.7802 22.1798C15.0916 23.89 13.903 25.4314 11.932 26.3281L13.5885 29.969ZM9.78095 25.3627C9.15869 26.5494 9.38731 27.8701 9.92287 28.7526C10.2059 29.219 10.6594 29.7102 11.3176 29.9965C12.0281 30.3054 12.8394 30.3098 13.5885 29.969L11.932 26.3281C12.2188 26.1976 12.5891 26.1875 12.9127 26.3282C13.184 26.4462 13.3049 26.6156 13.3425 26.6775C13.3849 26.7474 13.4016 26.8081 13.4062 26.8688C13.4111 26.933 13.4059 27.0631 13.3235 27.2202L9.78095 25.3627ZM10.3701 23.3751C10.3281 24.0633 10.1098 24.7355 9.78095 25.3627L13.3235 27.2202C13.8535 26.2094 14.2792 24.9885 14.3627 23.6185L10.3701 23.3751Z" fill="#2B4BBE" mask="url(#path-3-inside-1_126_440)"/>
<mask id="path-5-inside-2_126_440" fill="white">
<path fill-rule="evenodd" clip-rule="evenodd" d="M26.5812 23.4968C23.5841 23.297 21.2148 20.8026 21.2148 17.7549C21.2148 14.5765 23.7914 12 26.9697 12C29.9649 12 32.4257 14.2882 32.6993 17.2119C32.7078 17.2042 32.7162 17.1965 32.7246 17.1888C32.9874 20.1844 32.0469 25.8411 26.9751 28.1486C26.0506 28.5692 25.2954 27.191 25.7671 26.2915C26.1965 25.4725 26.5185 24.5259 26.5812 23.4968Z"/>
</mask>
<path fill-rule="evenodd" clip-rule="evenodd" d="M26.5812 23.4968C23.5841 23.297 21.2148 20.8026 21.2148 17.7549C21.2148 14.5765 23.7914 12 26.9697 12C29.9649 12 32.4257 14.2882 32.6993 17.2119C32.7078 17.2042 32.7162 17.1965 32.7246 17.1888C32.9874 20.1844 32.0469 25.8411 26.9751 28.1486C26.0506 28.5692 25.2954 27.191 25.7671 26.2915C26.1965 25.4725 26.5185 24.5259 26.5812 23.4968Z" fill="white"/>
<path d="M26.5812 23.4968L28.5775 23.6185L28.6985 21.6335L26.7143 21.5012L26.5812 23.4968ZM32.6993 17.2119L30.708 17.3982L31.0816 21.3903L34.046 18.6905L32.6993 17.2119ZM32.7246 17.1888L34.717 17.014L34.3641 12.9915L31.3782 15.7099L32.7246 17.1888ZM26.9751 28.1486L27.8034 29.969H27.8034L26.9751 28.1486ZM25.7671 26.2915L27.5383 27.2203L27.5384 27.2203L25.7671 26.2915ZM26.7143 21.5012C24.7606 21.371 23.2148 19.7426 23.2148 17.7549H19.2148C19.2148 21.8626 22.4075 25.2231 26.4482 25.4924L26.7143 21.5012ZM23.2148 17.7549C23.2148 15.6811 24.896 14 26.9697 14V10C22.6868 10 19.2148 13.472 19.2148 17.7549H23.2148ZM26.9697 14C28.9228 14 30.5297 15.4928 30.708 17.3982L34.6906 17.0255C34.3217 13.0836 31.007 10 26.9697 10V14ZM31.3782 15.7099C31.3697 15.7176 31.3612 15.7254 31.3526 15.7332L34.046 18.6905C34.0544 18.6829 34.0627 18.6753 34.071 18.6677L31.3782 15.7099ZM27.8034 29.969C30.9042 28.5583 32.7217 26.1176 33.7056 23.6737C34.6756 21.2644 34.8718 18.7796 34.717 17.014L30.7323 17.3636C30.8402 18.5936 30.6975 20.4349 29.9951 22.1798C29.3065 23.89 28.1178 25.4314 26.1469 26.3282L27.8034 29.969ZM23.9958 25.3627C23.3736 26.5494 23.6022 27.8701 24.1377 28.7527C24.4207 29.219 24.8743 29.7103 25.5325 29.9965C26.2429 30.3054 27.0543 30.3098 27.8034 29.969L26.1469 26.3282C26.4337 26.1977 26.804 26.1876 27.1276 26.3283C27.3989 26.4462 27.5198 26.6156 27.5574 26.6775C27.5998 26.7474 27.6165 26.8081 27.6211 26.8688C27.626 26.933 27.6208 27.0631 27.5383 27.2203L23.9958 25.3627ZM24.585 23.3751C24.543 24.0633 24.3247 24.7355 23.9958 25.3627L27.5384 27.2203C28.0684 26.2095 28.494 24.9885 28.5775 23.6185L24.585 23.3751Z" fill="#2B4BBE" mask="url(#path-5-inside-2_126_440)"/>
</svg>
