<svg width="25" height="18" viewBox="0 0 25 18" fill="none" xmlns="http://www.w3.org/2000/svg">
<g opacity="0.6">
<mask id="path-1-inside-1_99_3412" fill="white">
<path fill-rule="evenodd" clip-rule="evenodd" d="M4.88586 17.6132C4.86709 17.6134 4.8483 17.6135 4.82948 17.6135C2.16223 17.6135 0 15.4513 0 12.784C0 10.1168 2.16223 7.95456 4.82948 7.95456C4.93686 7.95456 5.04343 7.95806 5.14906 7.96496C5.12565 7.72789 5.11366 7.48745 5.11366 7.24422C5.11366 3.24335 8.35701 0 12.3579 0C16.0228 0 19.0522 2.7216 19.535 6.25399C22.5723 6.36813 24.9996 8.86643 24.9996 11.9317C24.9996 15.0696 22.4558 17.6134 19.3178 17.6134C19.3015 17.6134 19.2852 17.6133 19.2689 17.6132H4.88586Z"/>
</mask>
<path d="M4.88586 17.6132V15.6132H4.87438L4.8629 15.6133L4.88586 17.6132ZM5.14906 7.96496L5.01868 9.96071L7.3711 10.1144L7.13938 7.76837L5.14906 7.96496ZM19.535 6.25399L17.5534 6.52485L17.781 8.18949L19.4599 8.25258L19.535 6.25399ZM19.2689 17.6132L19.2858 15.6133L19.2774 15.6132H19.2689V17.6132ZM4.8629 15.6133C4.85187 15.6135 4.84073 15.6135 4.82948 15.6135V19.6135C4.85587 19.6135 4.88232 19.6134 4.90883 19.6131L4.8629 15.6133ZM4.82948 15.6135C3.2668 15.6135 2 14.3467 2 12.784H-2C-2 16.5559 1.05766 19.6135 4.82948 19.6135V15.6135ZM2 12.784C2 11.2214 3.2668 9.95456 4.82948 9.95456V5.95456C1.05766 5.95456 -2 9.01222 -2 12.784H2ZM4.82948 9.95456C4.89332 9.95456 4.9564 9.95664 5.01868 9.96071L5.27945 5.96922C5.13045 5.95948 4.98041 5.95456 4.82948 5.95456V9.95456ZM7.13938 7.76837C7.12241 7.59653 7.11366 7.4217 7.11366 7.24422H3.11366C3.11366 7.55321 3.12889 7.85925 3.15875 8.16155L7.13938 7.76837ZM7.11366 7.24422C7.11366 4.34792 9.46158 2 12.3579 2V-2C7.25244 -2 3.11366 2.13878 3.11366 7.24422H7.11366ZM12.3579 2C15.0094 2 17.2041 3.96963 17.5534 6.52485L21.5166 5.98313C20.9002 1.47357 17.0363 -2 12.3579 -2V2ZM19.4599 8.25258C21.4267 8.32649 22.9996 9.94585 22.9996 11.9317H26.9996C26.9996 7.78702 23.7179 4.40977 19.6101 4.2554L19.4599 8.25258ZM22.9996 11.9317C22.9996 13.965 21.3512 15.6134 19.3178 15.6134V19.6134C23.5603 19.6134 26.9996 16.1742 26.9996 11.9317H22.9996ZM19.3178 15.6134C19.3071 15.6134 19.2965 15.6134 19.2858 15.6133L19.2521 19.6131C19.274 19.6133 19.2959 19.6134 19.3178 19.6134V15.6134ZM19.2689 15.6132H4.88586V19.6132H19.2689V15.6132Z" fill="#939393" mask="url(#path-1-inside-1_99_3412)"/>
<path d="M12.5 6.96021V14.4885" stroke="#939393" stroke-width="2" stroke-linecap="round"/>
<path d="M9.08984 10.2272C9.20348 9.99989 11.4099 7.85977 12.4989 6.81812L15.9079 10.2272" stroke="#939393" stroke-width="2" stroke-linecap="round"/>
</g>
</svg>
