<svg width="35" height="26" viewBox="0 0 35 26" fill="none" xmlns="http://www.w3.org/2000/svg">
<path d="M22.9564 12.6261C21.4815 12.6261 20.0553 11.9675 18.939 10.7723C17.8536 9.60659 17.1908 8.052 17.0738 6.39626C16.949 4.63004 17.4878 3.00587 18.5904 1.82217C19.693 0.638478 21.2347 0 22.9564 0C24.666 0 26.212 0.649956 27.311 1.83078C28.4208 3.02309 28.961 4.64439 28.8362 6.39554C28.7164 8.05343 28.0542 9.6073 26.971 10.7716C25.8576 11.9675 24.4321 12.6261 22.9564 12.6261Z" fill="white"/>
<path d="M32.4138 25.2522H13.4998C13.1957 25.2538 12.8953 25.1856 12.6217 25.0529C12.348 24.9202 12.1085 24.7265 11.9215 24.4867C11.7232 24.2268 11.5862 23.9253 11.5208 23.6049C11.4555 23.2845 11.4635 22.9534 11.5442 22.6366C12.1482 20.2111 13.6447 18.1995 15.8715 16.82C17.8479 15.5961 20.3638 14.9217 22.9564 14.9217C25.6 14.9217 28.0499 15.5674 30.0378 16.7905C32.2696 18.1629 33.7682 20.186 34.3694 22.6409C34.4492 22.958 34.4562 23.289 34.3902 23.6092C34.3241 23.9295 34.1865 24.2307 33.9878 24.4903C33.801 24.729 33.562 24.9218 33.2892 25.0538C33.0163 25.1859 32.7169 25.2537 32.4138 25.2522Z" fill="white"/>
<path d="M9.39774 12.913C6.87324 12.913 4.65364 10.5657 4.44774 7.68111C4.34587 6.20328 4.80644 4.83665 5.73905 3.83446C6.66161 2.8423 7.96296 2.29565 9.39774 2.29565C10.8325 2.29565 12.1238 2.84517 13.0514 3.84307C13.9912 4.85315 14.4503 6.21691 14.3427 7.68254C14.1368 10.5665 11.9179 12.913 9.39774 12.913Z" fill="white"/>
<path d="M14.1081 15.1692C12.8462 14.5523 11.2084 14.2438 9.39846 14.2438C7.28503 14.2438 5.23257 14.7948 3.61844 15.7948C1.78838 16.9304 0.557331 18.584 0.0601793 20.5805C-0.0125749 20.8677 -0.0194561 21.1676 0.0400503 21.4578C0.0995567 21.748 0.22391 22.021 0.40381 22.2563C0.574511 22.4755 0.793198 22.6526 1.04305 22.7739C1.29291 22.8953 1.56727 22.9578 1.84505 22.9565H9.80809C9.9425 22.9565 10.0726 22.9093 10.1758 22.8232C10.279 22.737 10.3487 22.6174 10.3727 22.4852C10.3806 22.44 10.3906 22.3948 10.4021 22.3503C11.0104 19.9069 12.4359 17.8422 14.5422 16.3372C14.6196 16.2813 14.6819 16.207 14.7234 16.121C14.7649 16.035 14.7843 15.94 14.7798 15.8446C14.7754 15.7492 14.7471 15.6565 14.6977 15.5747C14.6483 15.493 14.5793 15.4249 14.497 15.3766C14.3843 15.3106 14.2552 15.241 14.1081 15.1692Z" fill="white"/>
</svg>
