<svg xmlns="http://www.w3.org/2000/svg">

  <svg viewBox="0 0 36 33" id="icon-store" xmlns="http://www.w3.org/2000/svg">
    <path d="M33.0757 11.432H27.3267L19.1483 0.571599C19.0147 0.394123 18.8414 0.250075 18.6421 0.150863C18.4429 0.0516511 18.2232 0 18.0005 0C17.7777 0 17.558 0.0516511 17.3588 0.150863C17.1596 0.250075 16.9863 0.394123 16.8526 0.571599L8.67429 11.432H2.92524C2.15186 11.4308 1.40958 11.7351 0.861205 12.2783C0.31283 12.8214 0.00313665 13.559 5.06954e-05 14.3293C-0.00161942 14.6016 0.0379847 14.8726 0.117525 15.1331L4.26678 29.7035C4.53659 30.6531 5.1104 31.489 5.90096 32.084C6.69152 32.6791 7.65557 33.0007 8.6465 33H27.3545C28.3455 32.9969 29.3089 32.6747 30.1009 32.0813C30.8928 31.488 31.4708 30.6554 31.7485 29.708L35.9032 15.1179C35.9223 15.0488 35.9361 14.9783 35.9444 14.9071L35.9919 14.4668C35.9973 14.4209 36 14.3746 36 14.3284C35.9967 13.5584 35.687 12.8212 35.1388 12.2783C34.5907 11.7354 33.8488 11.431 33.0757 11.432ZM18.0005 3.81096L23.7397 11.432H12.2613L18.0005 3.81096ZM18.0005 25.6925C17.3325 25.6893 16.6805 25.4891 16.1267 25.1172C15.5728 24.7453 15.142 24.2183 14.8886 23.6028C14.6352 22.9873 14.5705 22.3108 14.7028 21.6587C14.8351 21.0066 15.1583 20.4082 15.6318 19.9389C16.1052 19.4696 16.7076 19.1505 17.363 19.0219C18.0183 18.8933 18.6973 18.9609 19.3141 19.2162C19.9309 19.4715 20.4579 19.9031 20.8287 20.4564C21.1995 21.0098 21.3973 21.6601 21.3974 22.3254C21.3924 23.2193 21.0323 24.0749 20.3957 24.7052C19.7592 25.3355 18.898 25.6891 18.0005 25.6889V25.6925Z"/>
  </svg>

  <symbol viewBox="0 0 58 58" id="icon-cross" xmlns="http://www.w3.org/2000/svg">
    <path opacity="0.8" d="M14.875 43.125L43.625 14.375M43.625 43.125L14.875 14.375" stroke="black"/>
  </symbol>
  <symbol viewBox="0 0 24 34" id="icon-mic" xmlns="http://www.w3.org/2000/svg">
    <path fill="white" d="M9.25839 21.715C10.0523 22.0534 10.9062 22.2288 11.7692 22.2308C15.3744 22.2308 18.3077 19.2607 18.3077 15.6106V6.5385C18.3077 2.87206 15.4357 4.94777e-05 11.7692 4.94777e-05C10.9097 -0.00330091 10.0579 0.163534 9.26312 0.490935C8.46832 0.818337 7.7462 1.29983 7.13838 1.90765C6.53056 2.51547 6.04907 3.23759 5.72166 4.03239C5.39426 4.82718 5.22743 5.67892 5.23078 6.5385V15.6106C5.23196 17.3527 5.92072 19.024 7.14736 20.2611C7.74656 20.8822 8.46444 21.3766 9.25839 21.715Z"/>
    <path fill="white" d="M2.61538 13.077C2.61538 12.3547 2.02991 11.7693 1.30769 11.7693C0.585474 11.7693 0 12.3547 0 13.077V15.6923C0 21.7266 4.59554 26.7338 10.4615 27.3889V31.3846H6.53846C5.81624 31.3846 5.23077 31.9701 5.23077 32.6923C5.23077 33.4145 5.81624 34 6.53846 34H17C17.7222 34 18.3077 33.4145 18.3077 32.6923C18.3077 31.9701 17.7222 31.3846 17 31.3846H13.0769V27.3889C18.9429 26.7338 23.5385 21.7266 23.5385 15.6923V13.077C23.5385 12.3547 22.953 11.7693 22.2308 11.7693C21.5085 11.7693 20.9231 12.3547 20.9231 13.077V15.6923C20.9231 20.724 16.8009 24.8462 11.7692 24.8462C6.7376 24.8462 2.61538 20.724 2.61538 15.6923V13.077Z"/>
  </symbol>

  <symbol viewBox="0 0 72 72" id="icon-loader" xmlns="http://www.w3.org/2000/svg">
    <path opacity="0.6" d="M14.1964 62.1492C18.4369 62.1492 21.8745 58.7116 21.8745 54.4711C21.8745 50.2306 18.4369 46.793 14.1964 46.793C9.95591 46.793 6.51831 50.2306 6.51831 54.4711C6.51831 58.7116 9.95591 62.1492 14.1964 62.1492Z"/>
    <path opacity="0.3" d="M63.5966 55.3401C67.2771 55.3401 70.2607 52.3565 70.2607 48.6761C70.2607 44.9957 67.2771 42.0121 63.5966 42.0121C59.9162 42.0121 56.9326 44.9957 56.9326 48.6761C56.9326 52.3565 59.9162 55.3401 63.5966 55.3401Z"/>
    <path opacity="0.1" d="M57.5126 21.7302C60.553 21.7302 63.0177 19.2655 63.0177 16.2251C63.0177 13.1848 60.553 10.7201 57.5126 10.7201C54.4723 10.7201 52.0076 13.1848 52.0076 16.2251C52.0076 19.2655 54.4723 21.7302 57.5126 21.7302Z"/>
    <path opacity="0.7" d="M8.1482 43.4071C12.6483 43.4071 16.2964 39.848 16.2964 35.4575C16.2964 31.0671 12.6483 27.5079 8.1482 27.5079C3.64808 27.5079 0 31.0671 0 35.4575C0 39.848 3.64808 43.4071 8.1482 43.4071Z"/>
    <path opacity="0.5" d="M31.5547 72.0001C35.6457 72.0001 38.9622 68.7684 38.9622 64.782C38.9622 60.7955 35.6457 57.5638 31.5547 57.5638C27.4637 57.5638 24.1472 60.7955 24.1472 64.782C24.1472 68.7684 27.4637 72.0001 31.5547 72.0001Z"/>
    <path opacity="0.4" d="M50.5932 68.8379C54.4797 68.8379 57.6303 65.7701 57.6303 61.9859C57.6303 58.2017 54.4797 55.134 50.5932 55.134C46.7068 55.134 43.5562 58.2017 43.5562 61.9859C43.5562 65.7701 46.7068 68.8379 50.5932 68.8379Z"/>
    <path opacity="0.8" d="M16.9633 24.9451C21.668 24.9451 25.4818 21.2223 25.4818 16.63C25.4818 12.0377 21.668 8.31494 16.9633 8.31494C12.2587 8.31494 8.44482 12.0377 8.44482 16.63C8.44482 21.2223 12.2587 24.9451 16.9633 24.9451Z"/>
    <path opacity="0.2" d="M65.7004 37.5404C69.1778 37.5404 71.9967 34.7737 71.9967 31.3608C71.9967 27.948 69.1778 25.1813 65.7004 25.1813C62.223 25.1813 59.4041 27.948 59.4041 31.3608C59.4041 34.7737 62.223 37.5404 65.7004 37.5404Z"/>
    <path d="M38.0986 17.9639C43.0592 17.9639 47.0806 13.9425 47.0806 8.98193C47.0806 4.02135 43.0592 0 38.0986 0C33.138 0 29.1167 4.02135 29.1167 8.98193C29.1167 13.9425 33.138 17.9639 38.0986 17.9639Z"/>
  </symbol>

  <symbol viewBox="0 0 20 11" id="icon-eye" xmlns="http://www.w3.org/2000/svg">
    <path opacity="0.4" fill-rule="evenodd" clip-rule="evenodd" d="M19.2653 4.15894C17.3385 2.49714 14.0944 0.0821282 10.0132 0H10.0007H9.98811C5.90834 0.0821282 2.66072 2.49714 0.733927 4.15894L0.722261 4.16889C0.598172 4.27434 0.0103141 4.7739 0.00021052 5.4064C-0.00746872 5.8681 0.195682 6.20919 0.488191 6.49479C2.06244 8.1085 5.49785 10.9778 9.98881 10.9985V11H10.0014H10.0139V10.9985C14.5133 10.9778 17.9382 8.1085 19.5132 6.49479C19.8057 6.20919 20.0081 5.8681 19.9998 5.4064C19.9882 4.77054 19.3954 4.26902 19.2751 4.16724L19.2653 4.15894ZM10.0007 9.75698C7.79324 9.74144 6.00817 7.84065 6.00817 5.49815C6.00817 3.15565 7.79324 1.25486 10.0007 1.24006C12.2137 1.25486 13.9925 3.15565 13.9925 5.49815C13.9925 7.84065 12.2137 9.7407 10.0007 9.75698ZM10.0007 3.84227C10.0049 3.84227 10.0091 3.84227 10.0132 3.84301C10.8642 3.86521 11.5372 4.5977 11.5372 5.49815C11.5372 6.3986 10.8642 7.13184 10.0132 7.15329V7.15477C10.0106 7.15477 10.0082 7.15434 10.0059 7.15394C10.004 7.1536 10.0023 7.15329 10.0007 7.15329C9.99858 7.15329 9.99649 7.15366 9.9944 7.15403C9.9923 7.1544 9.99021 7.15477 9.98811 7.15477V7.15329C9.1427 7.13184 8.46413 6.3986 8.46413 5.49815C8.46413 4.5977 9.1434 3.86521 9.98811 3.84301V3.84227H10.0007Z"/>
  </symbol>

  <symbol viewBox="0 0 21 15" id="icon-eye2" xmlns="http://www.w3.org/2000/svg">
    <path d="M10.5 4.5C11.2595 4.5 11.9879 4.81607 12.5249 5.37868C13.0619 5.94129 13.3636 6.70435 13.3636 7.5C13.3636 8.29565 13.0619 9.05871 12.5249 9.62132C11.9879 10.1839 11.2595 10.5 10.5 10.5C9.74052 10.5 9.01214 10.1839 8.4751 9.62132C7.93807 9.05871 7.63636 8.29565 7.63636 7.5C7.63636 6.70435 7.93807 5.94129 8.4751 5.37868C9.01214 4.81607 9.74052 4.5 10.5 4.5ZM10.5 0C15.2727 0 19.3486 3.11 21 7.5C19.3486 11.89 15.2727 15 10.5 15C5.72727 15 1.65136 11.89 0 7.5C1.65136 3.11 5.72727 0 10.5 0ZM2.08091 7.5C3.65591 10.86 6.91091 13 10.5 13C14.0891 13 17.3441 10.86 18.9191 7.5C17.3441 4.14 14.0891 2 10.5 2C6.91091 2 3.65591 4.14 2.08091 7.5Z"/>
  </symbol>


  <symbol viewBox="0 0 21 20" id="icon-eye-crossed" xmlns="http://www.w3.org/2000/svg">
    <path fill-rule="evenodd" clip-rule="evenodd" d="M9.22696 6.81274C9.61897 6.60893 10.0541 6.49999 10.5 6.49999C10.974 6.49999 11.436 6.62313 11.8468 6.8525L14.0799 4.74347C12.9655 4.26087 11.7531 3.99999 10.5 3.99999C9.30926 3.99999 8.1553 4.23554 7.08726 4.67304L9.22696 6.81274ZM7.87849 8.29269L5.26173 5.67594C3.92506 6.6199 2.81867 7.9261 2.08091 9.49999C2.84645 11.1331 4.00889 12.4781 5.41367 13.4291L7.91188 10.7839C7.73216 10.3863 7.63636 9.94834 7.63636 9.49999C7.63636 9.08028 7.72032 8.66963 7.87849 8.29269ZM9.30201 12.2249L7.254 14.3933C8.27501 14.7882 9.37097 15 10.5 15C11.6907 15 12.8447 14.7644 13.9127 14.327L11.773 12.1873C11.381 12.3911 10.9459 12.5 10.5 12.5C10.0824 12.5 9.67417 12.4044 9.30201 12.2249ZM13.1215 10.7073L15.7383 13.324C17.0749 12.3801 18.1813 11.0739 18.9191 9.49999C18.2094 7.98594 17.1585 6.71961 15.8897 5.78518L13.1528 8.37009C13.2907 8.72555 13.3636 9.10884 13.3636 9.49999C13.3636 9.91971 13.2797 10.3304 13.1215 10.7073ZM17.335 4.42025C18.9597 5.72108 20.238 7.47426 21 9.49999C20.2083 11.6045 18.8595 13.4149 17.1437 14.7295L20.2071 17.7929L18.7929 19.2071L15.4089 15.8231C13.9251 16.5771 12.2599 17 10.5 17C8.82382 17 7.23358 16.6164 5.80413 15.9285L2.72701 19.1866L1.27299 17.8134L4.04905 14.874C2.24155 13.5491 0.821078 11.6828 0 9.49999C0.791659 7.39544 2.14053 5.58506 3.85626 4.27047L1.29289 1.7071L2.70711 0.292887L5.5911 3.17687C7.0749 2.42287 8.74007 1.99999 10.5 1.99999C12.3444 1.99999 14.0847 2.46444 15.6213 3.28772L18.8134 0.27298L20.1866 1.72701L17.335 4.42025Z"/>
  </symbol>


  <symbol viewBox="0 0 40 40" id="icon-error" xmlns="http://www.w3.org/2000/svg">
    <circle cx="20" cy="20" r="20" fill="#F44336"/>
    <path d="M28.5398 25.5689L14.4323 11.4614C13.817 10.8462 12.8195 10.8462 12.2052 11.4614L11.4617 12.2038C10.8464 12.8193 10.8464 13.8168 11.4617 14.4311L25.5692 28.5386C26.1846 29.1538 27.1821 29.1538 27.7964 28.5386L28.5388 27.7962C29.1552 27.1819 29.1552 26.1842 28.5398 25.5689Z" fill="white"/>
    <path d="M25.5692 11.4614L11.4617 25.5689C10.8464 26.1842 10.8464 27.1819 11.4617 27.7962L12.2041 28.5385C12.8195 29.1538 13.817 29.1538 14.4313 28.5385L28.5398 14.432C29.1552 13.8168 29.1552 12.8193 28.5398 12.205L27.7974 11.4626C27.1821 10.8462 26.1846 10.8462 25.5692 11.4614Z" fill="white"/>
  </symbol>
  <symbol viewBox="0 0 40 40" id="icon-info" xmlns="http://www.w3.org/2000/svg">
    <circle cx="20" cy="20" r="20" fill="#2C4CC1"/>
    <path d="M18.4523 14.0022L18.4596 14.0096L18.4673 14.0166C18.8812 14.3975 19.3939 14.5807 19.9705 14.5807C20.5469 14.5807 21.0578 14.3973 21.4623 14.0096L21.4626 14.0093C21.875 13.6134 22.086 13.1133 22.086 12.5404C22.086 11.9705 21.8769 11.4749 21.4625 11.0899C21.0604 10.6917 20.5497 10.5 19.9705 10.5C19.3877 10.5 18.8726 10.6937 18.4597 11.09C18.0552 11.4778 17.855 11.9739 17.855 12.5404C17.855 13.1066 18.0547 13.6047 18.4523 14.0022Z" fill="white" stroke="white"/>
    <path d="M22.1272 18.5454C22.1272 17.717 21.4556 17.0454 20.6272 17.0454H19.3545C18.5261 17.0454 17.8545 17.717 17.8545 18.5454V28C17.8545 28.8284 18.5261 29.5 19.3545 29.5H20.6272C21.4556 29.5 22.1272 28.8284 22.1272 28V18.5454Z" fill="white" stroke="white"/>
  </symbol>
  <symbol viewBox="0 0 40 40" id="icon-warn" xmlns="http://www.w3.org/2000/svg">
    <circle cx="20" cy="20" r="20" fill="#F2C94C"/>
    <path d="M20.7114 11C22.4609 11 23.8587 11.4719 24.9049 12.4157C25.9683 13.3596 26.5 14.6489 26.5 16.2837C26.5 17.986 25.9512 19.2669 24.8535 20.1264C23.7558 20.986 22.2979 21.4157 20.4799 21.4157L20.377 23.4129H17.83L17.7013 19.4438H18.5503C20.214 19.4438 21.4832 19.2247 22.3579 18.7865C23.2498 18.3483 23.6957 17.514 23.6957 16.2837C23.6957 15.3904 23.4299 14.691 22.8982 14.1854C22.3837 13.6798 21.6633 13.427 20.7371 13.427C19.811 13.427 19.082 13.6713 18.5503 14.1601C18.0186 14.6489 17.7528 15.3315 17.7528 16.2079H15C15 15.1966 15.2315 14.2949 15.6946 13.5028C16.1577 12.7107 16.818 12.0955 17.6756 11.6573C18.5503 11.2191 19.5623 11 20.7114 11ZM19.0649 29C18.5332 29 18.0872 28.823 17.7271 28.4691C17.3669 28.1152 17.1868 27.677 17.1868 27.1545C17.1868 26.632 17.3669 26.1938 17.7271 25.8399C18.0872 25.486 18.5332 25.309 19.0649 25.309C19.5794 25.309 20.0168 25.486 20.377 25.8399C20.7371 26.1938 20.9172 26.632 20.9172 27.1545C20.9172 27.677 20.7371 28.1152 20.377 28.4691C20.0168 28.823 19.5794 29 19.0649 29Z" fill="white"/>
  </symbol>
  <symbol viewBox="0 0 40 40" id="icon-success" xmlns="http://www.w3.org/2000/svg">
    <circle cx="20" cy="20" r="20" fill="#219653"/>
    <path d="M16.8771 28.6532C16.6558 28.8758 16.3539 29 16.0403 29C15.7267 29 15.4248 28.8758 15.2035 28.6532L8.52064 21.9693C7.82711 21.2758 7.82711 20.1512 8.52064 19.4589L9.35743 18.6219C10.0512 17.9284 11.1745 17.9284 11.868 18.6219L16.0403 22.7944L27.3143 11.5201C28.0081 10.8266 29.1324 10.8266 29.8249 11.5201L30.6617 12.3572C31.3552 13.0507 31.3552 14.1751 30.6617 14.8675L16.8771 28.6532Z" fill="white"/>
  </symbol>


  <symbol viewBox="0 0 26 33" id="icon-file" xmlns="http://www.w3.org/2000/svg">
    <path d="M24.9652 13.7739H14.9217C14.0085 13.7739 13.1326 13.4111 12.4868 12.7653C11.8411 12.1196 11.4783 11.2437 11.4783 10.3304V0.286957C11.4783 0.210851 11.448 0.137862 11.3942 0.0840477C11.3404 0.0302329 11.2674 0 11.1913 0H4.5913C3.37361 0 2.2058 0.483725 1.34476 1.34476C0.483725 2.2058 0 3.37361 0 4.5913V27.5478C0 28.7655 0.483725 29.9333 1.34476 30.7944C2.2058 31.6554 3.37361 32.1391 4.5913 32.1391H20.6609C21.8786 32.1391 23.0464 31.6554 23.9074 30.7944C24.7684 29.9333 25.2522 28.7655 25.2522 27.5478V14.0609C25.2522 13.9848 25.2219 13.9118 25.1681 13.858C25.1143 13.8041 25.0413 13.7739 24.9652 13.7739Z" />
    <path d="M24.3353 11.2336L14.0185 0.916826C13.9985 0.896881 13.973 0.883313 13.9452 0.877826C13.9175 0.87234 13.8887 0.87518 13.8626 0.88599C13.8364 0.8968 13.8141 0.915097 13.7983 0.938581C13.7825 0.962066 13.774 0.989688 13.7739 1.01798V10.3304C13.7739 10.6349 13.8948 10.9268 14.1101 11.1421C14.3254 11.3573 14.6173 11.4783 14.9217 11.4783H24.2342C24.2625 11.4781 24.2901 11.4697 24.3136 11.4539C24.3371 11.4381 24.3554 11.4158 24.3662 11.3896C24.377 11.3635 24.3798 11.3347 24.3743 11.307C24.3689 11.2792 24.3553 11.2537 24.3353 11.2336Z" />
  </symbol>

  <symbol viewBox="0 0 24 24" id="icon-main" xmlns="http://www.w3.org/2000/svg">
    <path d="M0 2.32258C0 1.03986 1.03985 0 2.32258 0H8.51613C9.79885 0 10.8387 1.03985 10.8387 2.32258V8.51613C10.8387 9.79885 9.79885 10.8387 8.51613 10.8387H2.32258C1.03986 10.8387 0 9.79885 0 8.51613V2.32258Z"/>
    <path d="M0 15.4839C0 14.2011 1.03985 13.1613 2.32258 13.1613H8.51613C9.79885 13.1613 10.8387 14.2011 10.8387 15.4839V21.6774C10.8387 22.9601 9.79885 24 8.51613 24H2.32258C1.03986 24 0 22.9601 0 21.6774V15.4839Z"/>
    <path d="M13.1613 2.32258C13.1613 1.03986 14.2011 0 15.4839 0H21.6774C22.9601 0 24 1.03985 24 2.32258V8.51613C24 9.79885 22.9601 10.8387 21.6774 10.8387H15.4839C14.2011 10.8387 13.1613 9.79885 13.1613 8.51613V2.32258Z" />
    <path d="M13.1613 15.4839C13.1613 14.2011 14.2011 13.1613 15.4839 13.1613H21.6774C22.9601 13.1613 24 14.2011 24 15.4839V21.6774C24 22.9601 22.9601 24 21.6774 24H15.4839C14.2011 24 13.1613 22.9601 13.1613 21.6774V15.4839Z"/>
  </symbol>

  <symbol viewBox="0 0 33 33" id="icon-settings" xmlns="http://www.w3.org/2000/svg">
    <path d="M31.4498 19.6565L31.416 19.6293L29.1519 17.8537C29.0086 17.7403 28.8941 17.5945 28.8181 17.4282C28.742 17.262 28.7064 17.0801 28.7143 16.8974V16.0681C28.7072 15.8866 28.7431 15.706 28.8193 15.5412C28.8955 15.3763 29.0098 15.2319 29.1527 15.1197L31.416 13.3435L31.4498 13.3162C31.7988 13.0254 32.0331 12.62 32.1106 12.1723C32.1881 11.7247 32.1039 11.264 31.873 10.8728L28.809 5.57126C28.8055 5.56626 28.8024 5.56098 28.7997 5.55548C28.5675 5.16964 28.2076 4.87729 27.7823 4.72921C27.3571 4.58112 26.8934 4.58665 26.4718 4.74483L26.4467 4.75415L23.7851 5.82522C23.6172 5.89314 23.4354 5.92017 23.255 5.90408C23.0745 5.88799 22.9004 5.82924 22.7471 5.73267C22.5118 5.58441 22.2726 5.44428 22.0297 5.31228C21.8722 5.22686 21.7369 5.10562 21.6349 4.95832C21.5328 4.81103 21.4668 4.64182 21.4421 4.46433L21.0411 1.62417L21.0325 1.57252C20.9452 1.13262 20.7092 0.736167 20.364 0.4498C20.0188 0.163433 19.5856 0.00460213 19.1372 0H13.002C12.5473 0.00145525 12.1076 0.163362 11.7605 0.457196C11.4133 0.751031 11.1811 1.15794 11.1045 1.60624L11.0981 1.64641L10.6985 4.4923C10.674 4.66929 10.6085 4.8381 10.5072 4.98531C10.406 5.13252 10.2718 5.25407 10.1153 5.34026C9.86991 5.47226 9.6303 5.61215 9.39786 5.75778C9.24481 5.85376 9.07118 5.91206 8.89123 5.9279C8.71127 5.94374 8.53013 5.91666 8.36267 5.84889L5.69899 4.7728L5.67388 4.76276C5.25167 4.60441 4.7873 4.59909 4.36158 4.74773C3.93585 4.89637 3.5757 5.18956 3.3438 5.57628L3.33447 5.59206L0.266187 10.8972C0.0349215 11.2888 -0.0494866 11.75 0.0280569 12.1981C0.1056 12.6463 0.340039 13.0523 0.689448 13.3435L0.723166 13.3707L2.98725 15.1463C3.13063 15.2597 3.24506 15.4055 3.32113 15.5718C3.3972 15.738 3.43275 15.9199 3.42486 16.1026V16.9319C3.43205 17.1134 3.39606 17.294 3.31986 17.4588C3.24366 17.6237 3.12942 17.7681 2.98654 17.8803L0.723166 19.6565L0.689448 19.6838C0.340384 19.9746 0.106137 20.38 0.0285936 20.8277C-0.0489496 21.2753 0.0352681 21.736 0.266187 22.1272L3.33017 27.4287C3.33369 27.4337 3.33681 27.439 3.33949 27.4445C3.57166 27.8304 3.93162 28.1227 4.35687 28.2708C4.78213 28.4189 5.24582 28.4134 5.66743 28.2552L5.69254 28.2458L8.3519 27.1748C8.51989 27.1069 8.70161 27.0798 8.88209 27.0959C9.06257 27.112 9.23665 27.1708 9.38997 27.2673C9.62528 27.4161 9.86441 27.5562 10.1074 27.6877C10.2649 27.7731 10.4001 27.8944 10.5022 28.0417C10.6042 28.189 10.6703 28.3582 10.6949 28.5357L11.0938 31.3758L11.1024 31.4275C11.1898 31.8681 11.4265 32.2651 11.7726 32.5515C12.1186 32.838 12.5528 32.9964 13.002 33H19.1372C19.5919 32.9985 20.0316 32.8366 20.3787 32.5428C20.7259 32.249 20.9581 31.8421 21.0347 31.3938L21.0411 31.3536L21.4407 28.5077C21.4656 28.3304 21.5316 28.1613 21.6335 28.0141C21.7354 27.8669 21.8704 27.7455 22.0275 27.6597C22.2729 27.5277 22.5125 27.3878 22.7449 27.2422C22.898 27.1462 23.0716 27.0879 23.2516 27.0721C23.4315 27.0563 23.6127 27.0833 23.7801 27.1511L26.4438 28.2236L26.4689 28.2337C26.8911 28.3923 27.3556 28.3978 27.7814 28.2491C28.2072 28.1004 28.5673 27.8071 28.799 27.4201C28.8018 27.4147 28.8049 27.4094 28.8083 27.4043L31.8723 22.1035C32.104 21.7119 32.1887 21.2507 32.1113 20.8023C32.0339 20.3539 31.7994 19.9477 31.4498 19.6565ZM21.8023 16.7697C21.75 17.8807 21.3761 18.9525 20.726 19.8549C20.0759 20.7572 19.1777 21.4513 18.1404 21.8526C17.1032 22.2539 15.9717 22.3452 14.8835 22.1154C13.7954 21.8856 12.7974 21.3446 12.0111 20.5581C11.2247 19.7716 10.6838 18.7736 10.4541 17.6854C10.2244 16.5972 10.3158 15.4658 10.7173 14.4286C11.1187 13.3914 11.8129 12.4932 12.7153 11.8432C13.6178 11.1932 14.6896 10.8194 15.8006 10.7673C16.5981 10.7322 17.3943 10.8634 18.1384 11.1527C18.8825 11.4419 19.5583 11.8828 20.1228 12.4474C20.6872 13.0119 21.1281 13.6877 21.4172 14.4319C21.7064 15.176 21.8375 15.9722 21.8023 16.7697Z" />
  </symbol>

  <symbol viewBox="0 0 36 33" id="icon-store" xmlns="http://www.w3.org/2000/svg">
    <path d="M33.0757 11.432H27.3267L19.1483 0.571599C19.0147 0.394123 18.8414 0.250075 18.6421 0.150863C18.4429 0.0516511 18.2232 0 18.0005 0C17.7777 0 17.558 0.0516511 17.3588 0.150863C17.1596 0.250075 16.9863 0.394123 16.8526 0.571599L8.67429 11.432H2.92524C2.15186 11.4308 1.40958 11.7351 0.861205 12.2783C0.31283 12.8214 0.00313665 13.559 5.06954e-05 14.3293C-0.00161942 14.6016 0.0379847 14.8726 0.117525 15.1331L4.26678 29.7035C4.53659 30.6531 5.1104 31.489 5.90096 32.084C6.69152 32.6791 7.65557 33.0007 8.6465 33H27.3545C28.3455 32.9969 29.3089 32.6747 30.1009 32.0813C30.8928 31.488 31.4708 30.6554 31.7485 29.708L35.9032 15.1179C35.9223 15.0488 35.9361 14.9783 35.9444 14.9071L35.9919 14.4668C35.9973 14.4209 36 14.3746 36 14.3284C35.9967 13.5584 35.687 12.8212 35.1388 12.2783C34.5907 11.7354 33.8488 11.431 33.0757 11.432ZM18.0005 3.81096L23.7397 11.432H12.2613L18.0005 3.81096ZM18.0005 25.6925C17.3325 25.6893 16.6805 25.4891 16.1267 25.1172C15.5728 24.7453 15.142 24.2183 14.8886 23.6028C14.6352 22.9873 14.5705 22.3108 14.7028 21.6587C14.8351 21.0066 15.1583 20.4082 15.6318 19.9389C16.1052 19.4696 16.7076 19.1505 17.363 19.0219C18.0183 18.8933 18.6973 18.9609 19.3141 19.2162C19.9309 19.4715 20.4579 19.9031 20.8287 20.4564C21.1995 21.0098 21.3973 21.6601 21.3974 22.3254C21.3924 23.2193 21.0323 24.0749 20.3957 24.7052C19.7592 25.3355 18.898 25.6891 18.0005 25.6889V25.6925Z"/>
  </symbol>

  <symbol viewBox="0 0 35 26" id="icon-user-group" xmlns="http://www.w3.org/2000/svg">
    <path d="M22.9564 12.6261C21.4815 12.6261 20.0553 11.9675 18.939 10.7723C17.8536 9.60659 17.1908 8.052 17.0738 6.39626C16.949 4.63004 17.4878 3.00587 18.5904 1.82217C19.693 0.638478 21.2347 0 22.9564 0C24.666 0 26.212 0.649956 27.311 1.83078C28.4208 3.02309 28.961 4.64439 28.8362 6.39554C28.7164 8.05343 28.0542 9.6073 26.971 10.7716C25.8576 11.9675 24.4321 12.6261 22.9564 12.6261Z"/>
    <path d="M32.4138 25.2522H13.4998C13.1957 25.2538 12.8953 25.1856 12.6217 25.0529C12.348 24.9202 12.1085 24.7265 11.9215 24.4867C11.7232 24.2268 11.5862 23.9253 11.5208 23.6049C11.4555 23.2845 11.4635 22.9534 11.5442 22.6366C12.1482 20.2111 13.6447 18.1995 15.8715 16.82C17.8479 15.5961 20.3638 14.9217 22.9564 14.9217C25.6 14.9217 28.0499 15.5674 30.0378 16.7905C32.2696 18.1629 33.7682 20.186 34.3694 22.6409C34.4492 22.958 34.4562 23.289 34.3902 23.6092C34.3241 23.9295 34.1865 24.2307 33.9878 24.4903C33.801 24.729 33.562 24.9218 33.2892 25.0538C33.0163 25.1859 32.7169 25.2537 32.4138 25.2522Z"/>
    <path d="M9.39774 12.913C6.87324 12.913 4.65364 10.5657 4.44774 7.68111C4.34587 6.20328 4.80644 4.83665 5.73905 3.83446C6.66161 2.8423 7.96296 2.29565 9.39774 2.29565C10.8325 2.29565 12.1238 2.84517 13.0514 3.84307C13.9912 4.85315 14.4503 6.21691 14.3427 7.68254C14.1368 10.5665 11.9179 12.913 9.39774 12.913Z"/>
    <path d="M14.1081 15.1692C12.8462 14.5523 11.2084 14.2438 9.39846 14.2438C7.28503 14.2438 5.23257 14.7948 3.61844 15.7948C1.78838 16.9304 0.557331 18.584 0.0601793 20.5805C-0.0125749 20.8677 -0.0194561 21.1676 0.0400503 21.4578C0.0995567 21.748 0.22391 22.021 0.40381 22.2563C0.574511 22.4755 0.793198 22.6526 1.04305 22.7739C1.29291 22.8953 1.56727 22.9578 1.84505 22.9565H9.80809C9.9425 22.9565 10.0726 22.9093 10.1758 22.8232C10.279 22.737 10.3487 22.6174 10.3727 22.4852C10.3806 22.44 10.3906 22.3948 10.4021 22.3503C11.0104 19.9069 12.4359 17.8422 14.5422 16.3372C14.6196 16.2813 14.6819 16.207 14.7234 16.121C14.7649 16.035 14.7843 15.94 14.7798 15.8446C14.7754 15.7492 14.7471 15.6565 14.6977 15.5747C14.6483 15.493 14.5793 15.4249 14.497 15.3766C14.3843 15.3106 14.2552 15.241 14.1081 15.1692Z" />
  </symbol>


  <symbol viewBox="0 0 14 21" id="icon-logout" xmlns="http://www.w3.org/2000/svg">
    <path d="M14 1H5C2.79086 1 1 2.79086 1 5V16C1 18.2091 2.79086 20 5 20H14" stroke="white"/>
    <path d="M14 10.5H5M5 10.5L8 7M5 10.5L8 14" stroke="white"/>
  </symbol>

  <symbol viewBox="0 0 10 18" id="icon-facebook" xmlns="http://www.w3.org/2000/svg">
    <path fill-rule="evenodd" clip-rule="evenodd" d="M6.4908 18V9.7894H9.43919L9.8806 6.58953H6.4908V4.54655C6.4908 3.62011 6.76599 2.9888 8.18727 2.9888L10 2.988V0.126072C9.68641 0.0871465 8.61041 0 7.35859 0C4.74505 0 2.95586 1.49118 2.95586 4.22974V6.58953H0V9.7894H2.95586V18H6.4908Z"/>
  </symbol>

  <symbol viewBox="0 0 19 19" id="icon-google" xmlns="http://www.w3.org/2000/svg">
    <path d="M18.5297 8.03598L18.4338 7.62926H9.59373V11.3707H14.8756C14.3272 13.9748 11.7825 15.3455 9.704 15.3455C8.19163 15.3455 6.59741 14.7093 5.54223 13.6868C4.98552 13.1387 4.54238 12.4862 4.23818 11.7666C3.93399 11.047 3.77471 10.2744 3.76946 9.49321C3.76946 7.91723 4.47772 6.34083 5.5083 5.30388C6.53888 4.26694 8.09536 3.68676 9.64292 3.68676C11.4153 3.68676 12.6855 4.62786 13.1605 5.05705L15.8192 2.41232C15.0393 1.72696 12.8967 0 9.55725 0C6.9808 0 4.51038 0.986897 2.70453 2.78681C0.922433 4.55915 0 7.12203 0 9.5C0 11.878 0.872813 14.3128 2.59978 16.0991C4.44507 18.0042 7.05842 19 9.74938 19C12.1977 19 14.5185 18.0407 16.1725 16.3001C17.7985 14.5867 18.6395 12.216 18.6395 9.73071C18.6395 8.68444 18.5343 8.06312 18.5297 8.03598Z"/>
  </symbol>

  <symbol viewBox="0 0 15 26" id="arrow-left" xmlns="http://www.w3.org/2000/svg">
    <path d="M12.7279 0L14.1421 1.41421L1.41421 14.1421L0 12.7279L12.7279 0Z" />
    <path d="M1.41421 11.3137L0 12.7279L12.7279 25.4558L14.1421 24.0416L1.41421 11.3137Z"/>
  </symbol>

  <symbol viewBox="0 0 27 30" id="download" xmlns="http://www.w3.org/2000/svg">
    <path d="M19.75 9.86048H22.875C23.7038 9.86048 24.4987 10.1285 25.0847 10.6055C25.6708 11.0825 26 11.7295 26 12.4041V25.6308C26 26.3054 25.6708 26.9524 25.0847 27.4294C24.4987 27.9064 23.7038 28.1744 22.875 28.1744H4.125C3.2962 28.1744 2.50134 27.9064 1.91529 27.4294C1.32924 26.9524 1 26.3054 1 25.6308V12.4041C1 11.7295 1.32924 11.0825 1.91529 10.6055C2.50134 10.1285 3.2962 9.86048 4.125 9.86048H7.25M7.25 15.9651L13.5 21.0523L19.75 15.9651M13.5 1.72095V20.0349" stroke-width="2" stroke-linecap="round" stroke-linejoin="round"/>
  </symbol>

  <symbol viewBox="0 0 20 20" id="plus" xmlns="http://www.w3.org/2000/svg">
    <path d="M9.64038 0V19.322M0 9.66102H19.2808" />
  </symbol>

  <symbol id="pdf-file" viewBox="0 0 26 26" fill="none" xmlns="http://www.w3.org/2000/svg">
    <rect x="1" y="8" width="23" height="12" fill="#E2574C"/>
    <path d="M6.37357 11.0588H4.76172C4.55931 11.0588 4.36517 11.1394 4.22222 11.2828C4.07927 11.4261 3.99934 11.6205 4 11.823L4.01123 17.6092C4.01123 18.0299 4.35227 18.3709 4.77295 18.3709C5.19362 18.3709 5.53466 18.0299 5.53466 17.6092V15.8524C5.84611 15.8508 6.17882 15.8494 6.37357 15.8494C7.71196 15.8494 8.80086 14.7749 8.80086 13.4541C8.80086 12.1333 7.71196 11.0588 6.37357 11.0588ZM6.37357 14.326C6.1771 14.326 5.84316 14.3273 5.5305 14.329C5.52888 14.0047 5.52745 13.6555 5.52745 13.4541C5.52745 13.2818 5.52659 12.9212 5.52568 12.5822H6.37352C6.86346 12.5822 7.27738 12.9815 7.27738 13.4541C7.27738 13.9267 6.86351 14.326 6.37357 14.326Z" fill="white"/>
    <path d="M12.8527 11.0588H11.2617C11.0595 11.0588 10.8655 11.1392 10.7226 11.2824C10.5797 11.4255 10.4996 11.6197 10.5 11.8219C10.5 11.8219 10.5113 17.4204 10.5114 17.4407C10.5121 17.6427 10.5931 17.8362 10.7365 17.9786C10.8792 18.1202 11.0721 18.1997 11.2731 18.1997H11.276C11.3241 18.1995 12.4589 18.1951 12.9126 18.1872C14.6337 18.1572 15.883 16.6608 15.883 14.6292C15.8829 12.4937 14.6652 11.0588 12.8527 11.0588ZM12.886 16.664C12.6887 16.6675 12.3493 16.6703 12.0323 16.6723C12.0301 16.0107 12.026 13.2698 12.0248 12.5822H12.8527C14.2509 12.5822 14.3595 14.149 14.3595 14.6293C14.3595 15.6293 13.9039 16.6463 12.886 16.664Z" fill="white"/>
    <path d="M20.9032 12.5234C21.3239 12.5234 21.6649 12.1824 21.6649 11.7617C21.6649 11.341 21.3239 11 20.9032 11H18.5742C18.1536 11 17.8125 11.341 17.8125 11.7617V17.508C17.8125 17.9287 18.1536 18.2697 18.5742 18.2697C18.9949 18.2697 19.3359 17.9287 19.3359 17.508V15.3422H20.7182C21.1389 15.3422 21.4799 15.0012 21.4799 14.5805C21.4799 14.1598 21.1389 13.8188 20.7182 13.8188H19.3359V12.5234H20.9032Z" fill="white"/>
    <path d="M22.8008 7.36328H22.2422V7.14599C22.2422 6.16682 21.8712 5.23626 21.1975 4.52563L18.0336 1.18823C17.3177 0.433113 16.3103 0 15.2697 0H5.12891C3.86887 0 2.84375 1.02512 2.84375 2.28516V7.36328H2.28516C1.02512 7.36328 0 8.3884 0 9.64844V18.7891C0 20.0491 1.02512 21.0742 2.28516 21.0742H2.84375V23.7148C2.84375 24.9749 3.86887 26 5.12891 26H19.957C21.2171 26 22.2422 24.9749 22.2422 23.7148V21.0742H22.8008C24.0608 21.0742 25.0859 20.0491 25.0859 18.7891V9.64844C25.0859 8.3884 24.0608 7.36328 22.8008 7.36328ZM4.36719 2.28516C4.36719 1.86514 4.70889 1.52344 5.12891 1.52344H15.2697C15.894 1.52344 16.4985 1.78329 16.928 2.23641L20.092 5.5738C20.4962 6.00016 20.7188 6.5585 20.7188 7.14599V7.36328H4.36719V2.28516ZM20.7188 23.7148C20.7188 24.1349 20.377 24.4766 19.957 24.4766H5.12891C4.70889 24.4766 4.36719 24.1349 4.36719 23.7148V21.0742H20.7188V23.7148ZM23.5625 18.7891C23.5625 19.2091 23.2208 19.5508 22.8008 19.5508H2.28516C1.86514 19.5508 1.52344 19.2091 1.52344 18.7891V9.64844C1.52344 9.22843 1.86514 8.88672 2.28516 8.88672H22.8008C23.2208 8.88672 23.5625 9.22843 23.5625 9.64844V18.7891Z" fill="#E2574C"/>
  </symbol>

  <symbol id="icon-shuffle" viewBox="0 0 27 21" xmlns="http://www.w3.org/2000/svg" fill="none">
    <path d="M22.875 13.5L26 16.625L22.875 19.75M22.875 1L26 4.125L22.875 7.25M1 16.625H6.54622C7.40359 16.625 8.2477 16.4133 9.00363 16.0088C9.75956 15.6042 10.4039 15.0193 10.8796 14.306L13.5 10.375M1 4.125H6.54622C7.40359 4.12501 8.2477 4.33669 9.00363 4.74123C9.75956 5.14577 10.4039 5.73066 10.8796 6.44401L16.1204 14.306C16.5961 15.0193 17.2404 15.6042 17.9964 16.0088C18.7523 16.4133 19.5964 16.625 20.4538 16.625H23.9167M23.9167 4.125H20.4538C19.5964 4.12501 18.7523 4.33669 17.9964 4.74123C17.2404 5.14577 16.5961 5.73066 16.1204 6.44401L15.5833 7.25" stroke-width="2" stroke-linecap="round" stroke-linejoin="round"/>
  </symbol>

  <symbol id="icon-pencil" viewBox="0 0 18 18" xmlns="http://www.w3.org/2000/svg">
    <path d="M17.7723 2.22567C17.9166 2.37049 17.9977 2.56663 17.9977 2.77112C17.9977 2.97561 17.9166 3.17175 17.7723 3.31657L16.1606 4.92974L13.0703 1.83938L14.6819 0.226204C14.8268 0.0813658 15.0232 0 15.2281 0C15.433 0 15.6294 0.0813658 15.7743 0.226204L17.7723 2.22413V2.22567ZM15.0682 6.02064L11.9778 2.93027L1.45049 13.4591C1.36544 13.5442 1.30142 13.6479 1.26352 13.762L0.0196482 17.4921C-0.00291022 17.5601 -0.00611317 17.633 0.0103977 17.7027C0.0269086 17.7724 0.0624829 17.8362 0.113144 17.8869C0.163805 17.9375 0.227556 17.9731 0.297273 17.9896C0.36699 18.0061 0.439925 18.0029 0.507926 17.9804L4.238 16.7365C4.35198 16.699 4.45567 16.6355 4.54085 16.5511L15.0682 6.02218V6.02064Z"/>
  </symbol>


  <symbol id="icon-play" viewBox="0 0 27 33" xmlns="http://www.w3.org/2000/svg">
    <path d="M0 28.6293V4.37074C0 1.19699 3.51894 -0.712691 6.17995 1.01697L24.8403 13.1462C27.2671 14.7236 27.2671 18.2764 24.8404 19.8538L6.17995 31.983C3.51894 33.7127 0 31.803 0 28.6293Z" />
  </symbol>

  <symbol viewBox="0 0 19 14" id="icon-check" xmlns="http://www.w3.org/2000/svg">
    <path d="M1 6.5L6.26263 12.2012C6.65953 12.6312 7.33919 12.63 7.73459 12.1986L18 1"/>
  </symbol>

  <symbol viewBox="0 0 19 19" id="icon-trash" xmlns="http://www.w3.org/2000/svg">
    <path d="M4.75 1.9C4.75 1.39609 4.95018 0.912816 5.3065 0.556497C5.66282 0.200178 6.14609 0 6.65 0H12.35C12.8539 0 13.3372 0.200178 13.6935 0.556497C14.0498 0.912816 14.25 1.39609 14.25 1.9V3.8H18.05C18.302 3.8 18.5436 3.90009 18.7218 4.07825C18.8999 4.25641 19 4.49804 19 4.75C19 5.00196 18.8999 5.24359 18.7218 5.42175C18.5436 5.59991 18.302 5.7 18.05 5.7H17.0345L16.2108 17.2349C16.1767 17.7143 15.9622 18.1629 15.6105 18.4904C15.2588 18.8179 14.7961 19 14.3156 19H4.6835C4.20293 19 3.74021 18.8179 3.38854 18.4904C3.03687 18.1629 2.82237 17.7143 2.78825 17.2349L1.9665 5.7H0.95C0.698044 5.7 0.456408 5.59991 0.278249 5.42175C0.100089 5.24359 0 5.00196 0 4.75C0 4.49804 0.100089 4.25641 0.278249 4.07825C0.456408 3.90009 0.698044 3.8 0.95 3.8H4.75V1.9ZM6.65 3.8H12.35V1.9H6.65V3.8ZM3.8703 5.7L4.68445 17.1H14.3165L15.1307 5.7H3.8703ZM7.6 7.6C7.85196 7.6 8.09359 7.70009 8.27175 7.87825C8.44991 8.05641 8.55 8.29804 8.55 8.55V14.25C8.55 14.502 8.44991 14.7436 8.27175 14.9218C8.09359 15.0999 7.85196 15.2 7.6 15.2C7.34804 15.2 7.10641 15.0999 6.92825 14.9218C6.75009 14.7436 6.65 14.502 6.65 14.25V8.55C6.65 8.29804 6.75009 8.05641 6.92825 7.87825C7.10641 7.70009 7.34804 7.6 7.6 7.6ZM11.4 7.6C11.652 7.6 11.8936 7.70009 12.0718 7.87825C12.2499 8.05641 12.35 8.29804 12.35 8.55V14.25C12.35 14.502 12.2499 14.7436 12.0718 14.9218C11.8936 15.0999 11.652 15.2 11.4 15.2C11.148 15.2 10.9064 15.0999 10.7282 14.9218C10.5501 14.7436 10.45 14.502 10.45 14.25V8.55C10.45 8.29804 10.5501 8.05641 10.7282 7.87825C10.9064 7.70009 11.148 7.6 11.4 7.6Z" />
  </symbol>

  <symbol viewBox="0 0 512 512" id="icon-enter" xmlns="http://www.w3.org/2000/svg">
    <path d="m465.535156.320312c-.53125-.042968-.980468-.320312-1.535156-.320312h-229.332031c-35.285157 0-64 28.714844-64 64v21.332031c0 11.777344 9.554687 21.335938 21.332031 21.335938s21.332031-9.558594 21.332031-21.335938v-21.332031c0-11.753906 9.578125-21.332031 21.335938-21.332031h99.390625l-6.507813 2.175781c-17.277343 5.972656-28.882812 22.25-28.882812 40.488281v320h-64c-11.757813 0-21.335938-9.578125-21.335938-21.332031v-42.667969c0-11.773437-9.554687-21.332031-21.332031-21.332031s-21.332031 9.558594-21.332031 21.332031v42.667969c0 35.285156 28.714843 64 64 64h64v21.332031c0 23.53125 19.132812 42.667969 42.664062 42.667969 4.566407 0 8.898438-.660156 13.589844-2.113281l128.171875-42.730469c17.300781-5.972656 28.90625-22.25 28.90625-40.488281v-384c0-24.875-21.441406-44.375-46.464844-42.347657zm0 0"/><path d="m228.414062 198.25-85.332031-85.332031c-6.101562-6.101563-15.273437-7.9375-23.253906-4.628907-7.957031 3.304688-13.160156 11.09375-13.160156 19.710938v64h-85.335938c-11.773437 0-21.332031 9.558594-21.332031 21.332031 0 11.777344 9.558594 21.335938 21.332031 21.335938h85.335938v64c0 8.617187 5.203125 16.402343 13.160156 19.710937 7.980469 3.304688 17.152344 1.472656 23.253906-4.628906l85.332031-85.335938c8.34375-8.339843 8.34375-21.820312 0-30.164062zm0 0"/>
  </symbol>



</svg>
